<svg width="50" height="50" viewBox="0 0 50 50" fill="none" xmlns="http://www.w3.org/2000/svg">
<path d="M41.0832 18.3381C40.99 18.2444 40.9377 18.1176 40.9377 17.9855V8.40619C42.6075 7.8075 43.813 6.21813 43.813 4.33622C43.813 1.94513 41.8783 0 39.5 0C37.082 0 35.187 1.98281 35.187 4.33622C35.187 6.21813 36.3925 7.8075 38.0623 8.40619V17.9855C38.0623 18.1176 38.01 18.2444 37.9168 18.3381L32.5057 23.7783C32.2034 24.0823 32.1284 24.545 32.3193 24.9288L34.8914 30.1008C35.1381 30.5968 35.741 30.7977 36.2359 30.5489L37.0211 30.1542C37.513 29.9069 37.7125 29.3085 37.4673 28.8155L35.818 25.4991C35.6271 25.1153 35.7021 24.6525 36.0044 24.3486L39.1455 21.1906C39.341 20.9941 39.659 20.9941 39.8545 21.1906L42.9956 24.3486C43.2979 24.6525 43.3729 25.1153 43.182 25.4991L41.5327 28.8155C41.2875 29.3085 41.487 29.9069 41.9789 30.1542L42.7641 30.5489C43.259 30.7977 43.8619 30.5968 44.1086 30.1008L46.6807 24.9288C46.8716 24.545 46.7966 24.0823 46.4943 23.7783L41.0832 18.3381Z" fill="#0183FF"/>
<path d="M14.2022 10.146V10.1444C12.7699 7.27791 9.62714 5.47661 6.03249 6.13614C2.53687 6.82788 0 9.92464 0 13.4962C0 17.5977 3.29016 20.9914 7.49489 21C13.0447 21 16.6933 15.1438 14.2022 10.146ZM8.99387 13.997C8.99387 14.5493 8.54616 14.997 7.99387 14.997H6.99592C6.44363 14.997 5.99591 14.5493 5.99591 13.997V12.9955C5.99591 12.4432 6.44363 11.9955 6.99591 11.9955H7.99387C8.54616 11.9955 8.99387 12.4432 8.99387 12.9955V13.997Z" fill="#0183FF"/>
<path d="M47.4823 47.0395C47.2062 47.0395 46.9823 46.8156 46.9823 46.5395V36C46.9823 35.4477 46.5346 35 45.9823 35H42.1416C41.5893 35 41.1416 35.4477 41.1416 36V40.4211C41.1416 40.6972 40.9177 40.9211 40.6416 40.9211H38.7212C38.4451 40.9211 38.2212 40.6972 38.2212 40.4211V36C38.2212 35.4477 37.7735 35 37.2212 35H33.3805C32.8282 35 32.3805 35.4477 32.3805 36V46.5395C32.3805 46.8156 32.1567 47.0395 31.8805 47.0395H26.9425C26.6663 47.0395 26.4425 46.8156 26.4425 46.5395V45.0789C26.4425 44.5267 25.9948 44.0789 25.4425 44.0789H24.0221C23.746 44.0789 23.5221 43.8551 23.5221 43.5789V37.7879C21.6648 39.7154 19.0824 40.9211 16.2212 40.9211H16.2155C13.4026 40.9147 10.8074 39.7569 8.92035 37.7948V43.5789C8.92035 43.8551 8.6965 44.0789 8.42035 44.0789H7C6.44771 44.0789 6 44.5267 6 45.0789V49C6 49.5523 6.42411 50 6.97639 50C13.4711 50 50 50 50 50V48.0395C50 47.4872 49.5523 47.0395 49 47.0395H47.4823Z" fill="#0183FF"/>
<path d="M22.2489 27.5636L18.5014 20L11.6294 22.5365C10.3113 23.1814 9.00064 23.572 7.27499 23.572H7.26937C6.13021 23.5695 5.03451 23.3561 4 22.9959L9.45552 34.0083C10.6729 36.4656 13.1188 37.9943 15.8523 38C21.2034 38 24.5839 32.2952 22.2489 27.5636Z" fill="#0183FF"/>
<path d="M35 10.1047C33.1095 8.81716 31.8644 6.65629 31.8644 4.20935C31.8644 3.06097 32.1607 1.97439 32.6572 1L13 4.51066C14.3966 5.45334 15.5683 6.73666 16.3603 8.31196C17.6989 10.9912 17.7961 14.1773 16.478 17L35 10.1047Z" fill="#0183FF"/>
</svg>
