<svg width="44" height="50" viewBox="0 0 44 50" fill="none" xmlns="http://www.w3.org/2000/svg">
<path d="M10.5 21C8.0186 21 6 22.9996 6 25.4575V37.5425C6 40.0004 8.0186 42 10.5 42C12.9814 42 15 40.0004 15 37.5425V25.4575C15 22.9996 12.9814 21 10.5 21Z" fill="#0183FF"/>
<path d="M2.87742 25.201C2.87742 24.7897 2.93219 24.3923 3 24C1.26607 24.5555 0 26.1518 0 28.053V33.947C0 35.8482 1.26607 37.4445 3 38C2.93219 37.6077 2.87742 37.2103 2.87742 36.799V25.201Z" fill="#0183FF"/>
<path d="M34.5 21C32.0186 21 30 22.9384 30 25.3212V37.0364C30 39.4192 32.0186 41.3576 34.5 41.3576C34.951 41.3576 35.3782 41.2743 35.7892 41.1552C35.2308 42.9325 33.5305 44.2384 31.5 44.2384H26.7237C26.1024 42.5654 24.453 41.3576 22.5 41.3576C20.0186 41.3576 18 43.296 18 45.6788C18 48.0616 20.0186 50 22.5 50C24.453 50 26.1024 48.7922 26.7237 47.1192H31.5C35.6353 47.1192 39 43.8882 39 39.9172V37.0364V25.3212C39 22.9384 36.9814 21 34.5 21Z" fill="#0183FF"/>
<path d="M41 24C41.0678 24.3923 41.1226 24.7897 41.1226 25.201V36.799C41.1226 37.2103 41.0678 37.6077 41 38C42.7339 37.4445 44 35.8482 44 33.947V28.053C44 26.1518 42.7339 24.5555 41 24Z" fill="#0183FF"/>
<path d="M22 0C9.86852 0 0 9.85175 0 21.9626V22C0.87384 21.3396 1.88486 20.8563 3.00051 20.6399C3.68603 10.7618 11.9342 2.92835 22 2.92835C32.0658 2.92835 40.314 10.7618 40.9995 20.6398C42.115 20.8562 43.1261 21.3396 44 21.9999V21.9626C44 9.85175 34.1315 0 22 0Z" fill="#0183FF"/>
</svg>
