<svg width="50" height="50" viewBox="0 0 50 50" fill="none" xmlns="http://www.w3.org/2000/svg">
<path d="M25.5 15C21.3647 15 18 18.3647 18 22.5C18 26.6353 21.3647 30 25.5 30C29.6353 30 33 26.6353 33 22.5C33 18.3647 29.6353 15 25.5 15Z" fill="#0183FF"/>
<path d="M48.9986 20.6812L46.3575 19.8329C45.8225 17.6128 44.9499 15.507 43.754 13.5544L44.9542 11.154C45.236 10.5904 45.1259 9.90947 44.6795 9.46318L40.5367 5.32041C40.089 4.87266 39.4109 4.76533 38.8459 5.0457L36.444 6.24736C34.6616 5.15879 32.729 4.33477 30.6805 3.78975L29.24 0.809668C28.9911 0.313281 28.4848 0 27.9297 0H22.0703C21.5152 0 21.0089 0.313281 20.76 0.809668L19.3194 3.78984C17.2709 4.33486 15.3383 5.15889 13.5559 6.24746L11.154 5.0458C10.5875 4.76113 9.91094 4.87129 9.46318 5.32051L5.32041 9.46318C4.87412 9.90947 4.76396 10.5904 5.0457 11.154L6.24736 13.5559C5.15879 15.3383 4.33477 17.2709 3.78975 19.3194L0.809668 20.76C0.313281 21.0089 0 21.5152 0 22.0703V27.9297C0 28.4848 0.313281 28.9911 0.809668 29.24L3.78984 30.6806C4.28477 32.5302 5.02148 34.3055 5.98711 35.9749L4.96572 39.0376C4.79121 39.5641 4.92852 40.1448 5.32051 40.5368L9.46328 44.6796C9.85664 45.0716 10.4346 45.2089 10.9625 45.0344L14.0252 44.013C15.8663 45.0815 17.8132 45.8669 19.8331 46.3562L20.6814 48.9987C20.8802 49.5966 21.4395 50 22.0703 50H27.9297C28.5605 50 29.1199 49.5966 29.3188 48.9986L30.1671 46.3561C32.187 45.8668 34.1339 45.0814 35.975 44.0129L39.0377 45.0343C39.5655 45.2088 40.1464 45.0715 40.5369 44.6795L44.6797 40.5367C45.0717 40.1447 45.209 39.564 45.0345 39.0375L44.0131 35.9748C45.0816 34.1337 45.867 32.1868 46.3562 30.1669L48.9988 29.3186C49.5966 29.1199 50 28.5605 50 27.9297V22.0703C50 21.4395 49.5966 20.8802 48.9986 20.6812ZM25 41.1133C16.1151 41.1133 8.88672 33.8849 8.88672 25C8.88672 16.1151 16.1151 8.88672 25 8.88672C33.8849 8.88672 41.1133 16.1151 41.1133 25C41.1133 33.8849 33.8849 41.1133 25 41.1133Z" fill="#0183FF"/>
<path d="M32.2929 29C30.4022 30.839 27.8355 31.9835 25.0006 31.9835C22.1658 31.9835 19.5987 30.839 17.7082 29C16.4693 30.2286 15.5187 31.7512 15 33.4685C17.4722 36.2285 21.0189 38 25.0006 38C28.9816 38 32.528 36.2292 35 33.47C34.4818 31.752 33.5315 30.2287 32.2929 29Z" fill="#0183FF"/>
</svg>
