<svg width="50" height="50" viewBox="0 0 50 50" fill="none" xmlns="http://www.w3.org/2000/svg">
<path d="M26.827 26.8165C28.2554 25.3887 29.9192 24.2683 31.7719 23.4844C33.6928 22.6732 35.731 22.2612 37.8301 22.2612C39.2388 22.2612 40.619 22.4474 41.9557 22.8147C41.9842 22.3716 42 21.9258 42 21.4758V20.5246C42 9.18897 32.8074 0 21.4685 0H20.5327C9.19259 0 0 9.18897 0 20.5246V21.4758C0 32.811 9.19259 42 20.5327 42H21.4685C21.9252 42 22.3785 41.9835 22.8276 41.9538C22.4574 40.6138 22.27 39.2283 22.27 37.8152C22.27 35.717 22.6821 33.6795 23.4936 31.7594C24.2778 29.9074 25.3987 28.2442 26.827 26.8165ZM21.9433 22.4851L9.80632 22.3785L9.83172 19.4245L20.0567 19.5153L25.9247 6.7646L28.6101 7.99929L21.9433 22.4851Z" fill="#0183FF"/>
<path d="M37.5 25C30.5967 25 25 30.5967 25 37.5C25 44.4037 30.5967 50 37.5 50C44.4037 50 50 44.4037 50 37.5C50 30.5967 44.4037 25 37.5 25ZM39.917 43.8214H38.9722V45.5446H36.0416V43.8214H32.655V40.8908H39.917C40.4386 40.8908 40.8789 40.4493 40.8789 39.9277C40.8789 39.406 40.4386 38.9653 39.917 38.9653H35.0834C32.9362 38.9653 31.1897 37.2188 31.1897 35.0716C31.1897 32.9244 32.9362 31.1779 35.0834 31.1779H36.0416V29.447H38.9722V31.1779H42.3442V34.1085H35.0834C34.5618 34.1085 34.1203 34.55 34.1203 35.0716C34.1203 35.5932 34.5618 36.0347 35.0834 36.0347H39.917C42.0642 36.0347 43.8095 37.7805 43.8095 39.9277C43.8095 42.0748 42.0642 43.8214 39.917 43.8214Z" fill="#0183FF"/>
</svg>
