<svg width="50" height="50" viewBox="0 0 50 50" fill="none" xmlns="http://www.w3.org/2000/svg">
<g clip-path="url(#clip0_103_115)">
<path d="M47.9658 45.7563L46.8086 42.3473C44.787 36.396 39.5635 32.2039 33.4511 31.4028C31.1835 33.8982 28.2319 35.4214 24.9989 35.4214C21.7666 35.4214 18.8157 33.8982 16.5481 31.4028C10.4365 32.2039 5.21304 36.396 3.19142 42.3473L2.03423 45.7563C1.7011 46.7366 1.86073 47.8173 2.46437 48.6595C3.06728 49.501 4.03932 50 5.07481 50H44.9251C45.9607 50 46.9327 49.5009 47.5355 48.6595C48.1393 47.8173 48.2989 46.7366 47.9658 45.7563Z" fill="#FF5300"/>
<path d="M24.9989 32.8949C30.6409 32.8949 35.2211 26.9041 35.3757 19.4404H14.6244C14.779 26.9041 19.3592 32.8949 24.9989 32.8949Z" fill="#FF5300"/>
<path d="M12.301 16.1314C12.6383 16.2977 13.0116 16.3996 13.413 16.3996H36.4399H36.588C36.9885 16.3996 37.3628 16.2977 37.6992 16.1314C38.5348 15.7203 39.1146 14.8681 39.1146 13.873C39.1146 12.4774 37.9837 11.3464 36.5881 11.3464H36.3892H36.1243C36.052 10.9804 35.9664 10.6186 35.8751 10.2583C35.1859 7.54342 33.9414 5.01772 32.1914 3.12765V4.96264C32.1914 5.89274 31.4371 6.64701 30.507 6.64701C29.5767 6.64701 28.8227 5.89274 28.8227 4.96264V0.643898C28.1521 0.342974 27.4341 0.134732 26.6839 0V6.79922C26.6839 7.72932 25.9298 8.48358 24.9995 8.48358C24.0694 8.48358 23.3152 7.72932 23.3152 6.79922V0C22.5651 0.134732 21.8479 0.342974 21.1777 0.64305V4.96264C21.1777 5.89274 20.4234 6.64701 19.4933 6.64701C18.5632 6.64701 17.8089 5.89274 17.8089 4.96264V3.12776C16.0595 5.01698 14.8159 7.54099 14.1269 10.2544C14.0347 10.6162 13.9491 10.9789 13.8768 11.3465H13.6111H13.413C12.0172 11.3465 10.8864 12.4775 10.8864 13.8731C10.8863 14.8674 11.4661 15.7195 12.301 16.1314Z" fill="#FF5300"/>
</g>
<defs>
<clipPath id="clip0_103_115">
<rect width="50" height="50" fill="white"/>
</clipPath>
</defs>
</svg>
