<svg width="25" height="25" viewBox="0 0 25 25" fill="none" xmlns="http://www.w3.org/2000/svg">
<path d="M5.19063 7.49687C6.44938 7.49687 7.4698 6.47645 7.4698 5.2177C7.4698 3.95895 6.44938 2.93854 5.19063 2.93854C3.93189 2.93854 2.91147 3.95895 2.91147 5.2177C2.91147 6.47645 3.93189 7.49687 5.19063 7.49687Z" fill="white"/>
<path d="M9.62189 9.22397V21.8688H13.5479V15.6156C13.5479 13.9656 13.8583 12.3677 15.9042 12.3677C17.9219 12.3677 17.9469 14.2542 17.9469 15.7198V21.8698H21.875V14.9354C21.875 11.5292 21.1417 8.91147 17.1604 8.91147C15.249 8.91147 13.9677 9.96043 13.4438 10.9531H13.3906V9.22397H9.62189ZM3.22397 9.22397H7.15626V21.8688H3.22397V9.22397Z" fill="white"/>
</svg>
