<svg width="25" height="25" viewBox="0 0 25 25" fill="none" xmlns="http://www.w3.org/2000/svg">
<path d="M4.46353 7.57189C4.48749 7.33022 4.39582 7.0896 4.21353 6.9271L2.36978 4.70522V4.37189H8.09686L12.5239 14.0802L16.4156 4.37189H21.875V4.70418L20.2969 6.21564C20.1614 6.3198 20.0958 6.49064 20.1219 6.65835V17.7688C20.0958 17.9375 20.1614 18.1073 20.2969 18.2115L21.8375 19.7229V20.0552H14.0917V19.7229L15.6844 18.174C15.8427 18.0177 15.8427 17.9708 15.8427 17.7323V8.75105L11.4062 20.0188H10.8073L5.64269 8.75105V16.3021C5.59999 16.6198 5.70519 16.9396 5.92915 17.1698L8.00415 19.6875V20.0198H2.12082V19.6875L4.19582 17.1698C4.41665 16.9396 4.51665 16.6177 4.46353 16.3021V7.57189Z" fill="white"/>
</svg>
