<svg width="50" height="50" viewBox="0 0 50 50" fill="none" xmlns="http://www.w3.org/2000/svg">
<g clip-path="url(#clip0_103_86)">
<path d="M41.2597 18.5829C41.166 18.4891 41.1133 18.3619 41.1133 18.2293V8.51924C42.8146 7.9125 44.043 6.30176 44.043 4.39453C44.043 1.97129 42.0717 0 39.6484 0C37.1848 0 35.2539 2.00947 35.2539 4.39453C35.2539 6.30176 36.4822 7.9125 38.1836 8.51924V18.2293C38.1836 18.3619 38.1309 18.4891 38.0371 18.5829L32.5163 24.1037C32.2119 24.4081 32.1365 24.8731 32.329 25.258L34.9612 30.5225C35.2082 31.0164 35.8088 31.2167 36.3028 30.9697L37.1347 30.5538C37.6287 30.3068 37.8289 29.7061 37.5819 29.2121L35.8938 25.836C35.7013 25.451 35.7768 24.986 36.0811 24.6817L39.2949 21.4679C39.4901 21.2726 39.8067 21.2726 40.002 21.4679L43.2157 24.6817C43.5201 24.986 43.5955 25.451 43.4031 25.836L41.715 29.2121C41.468 29.7061 41.6682 30.3068 42.1622 30.5538L42.994 30.9697C43.488 31.2167 44.0887 31.0164 44.3357 30.5225L46.9679 25.258C47.1604 24.8731 47.0849 24.4081 46.7806 24.1037L41.2597 18.5829Z" fill="#0183FF"/>
<path d="M13.8788 9.91345V9.91198C12.4791 7.11403 9.40791 5.35583 5.89512 5.99958C2.4791 6.67477 0 9.69743 0 13.1836C0 17.1869 3.21523 20.4994 7.32422 20.5078C12.7477 20.5078 16.3132 14.7917 13.8788 9.91345ZM8.78906 13.6484C8.78906 14.2007 8.34135 14.6484 7.78906 14.6484H6.85938C6.30709 14.6484 5.85938 14.2007 5.85938 13.6484V12.7187C5.85938 12.1664 6.30709 11.7187 6.85938 11.7187H7.78906C8.34135 11.7187 8.78906 12.1664 8.78906 12.7187V13.6484Z" fill="#0183FF"/>
<path d="M47.4727 47.0703C47.1965 47.0703 46.9727 46.8465 46.9727 46.5703V36.1562C46.9727 35.604 46.5249 35.1562 45.9727 35.1562H42.1133C41.561 35.1562 41.1133 35.604 41.1133 36.1562V40.5156C41.1133 40.7918 40.8894 41.0156 40.6133 41.0156H38.6836C38.4075 41.0156 38.1836 40.7918 38.1836 40.5156V36.1563C38.1836 35.604 37.7359 35.1562 37.1836 35.1562H33.3242C32.7719 35.1562 32.3242 35.604 32.3242 36.1562V46.5703C32.3242 46.8465 32.1004 47.0703 31.8242 47.0703H26.8672C26.591 47.0703 26.3672 46.8465 26.3672 46.5703V45.1406C26.3672 44.5883 25.9195 44.1406 25.3672 44.1406H23.9375C23.6614 44.1406 23.4375 43.9168 23.4375 43.6406V37.9151C21.5742 39.8226 18.9836 41.0156 16.1133 41.0156H16.1075C13.2856 41.0094 10.6821 39.8636 8.78906 37.922V43.6406C8.78906 43.9168 8.5652 44.1406 8.28906 44.1406H6.85938C6.30709 44.1406 5.85938 44.5883 5.85938 45.1406V49C5.85938 49.5523 6.28323 50 6.83552 50C13.3417 50 50 50 50 50V48.0703C50 47.518 49.5523 47.0703 49 47.0703H47.4727Z" fill="#0183FF"/>
<path d="M22.6679 27.4902L18.8278 19.811L11.7861 22.3863C10.4354 23.041 9.09247 23.4376 7.32421 23.4376H7.31845C6.15117 23.4351 5.02841 23.2184 3.96835 22.8527L9.55859 34.0334C10.806 36.5282 13.3123 38.0803 16.1133 38.086C21.5966 38.086 25.0605 32.294 22.6679 27.4902Z" fill="#0183FF"/>
<path d="M35.5246 10.4401C33.595 9.11982 32.3242 6.90391 32.3242 4.39463C32.3242 3.21699 32.6266 2.10273 33.1334 1.10352L13.0697 4.70361C14.4952 5.67031 15.6911 6.98633 16.4995 8.60176C17.8658 11.3492 17.965 14.6165 16.6196 17.5111L35.5246 10.4401Z" fill="#0183FF"/>
</g>
<defs>
<clipPath id="clip0_103_86">
<rect width="50" height="50" rx="1" fill="white"/>
</clipPath>
</defs>
</svg>
