<svg width="50" height="50" viewBox="0 0 50 50" fill="none" xmlns="http://www.w3.org/2000/svg">
<g clip-path="url(#clip0_103_103)">
<path d="M48.5352 0C46.854 0 -1.10779 0 1.46484 0C0.655365 0 0 0.655365 0 1.46484C0 2.27432 0.655365 2.92969 1.46484 2.92969H5.85938V5.85938H4.39453C3.79524 5.85938 3.25737 6.22406 3.03421 6.78062L0.104523 14.2025C0.0358582 14.3757 0 14.5603 0 14.7461V19.1406C0 19.5297 0.154495 19.9017 0.429153 20.1763L5.85938 25.6065V27.9297C5.85938 28.7392 6.51474 29.3945 7.32422 29.3945H16.2109C17.0204 29.3945 17.6758 28.7392 17.6758 27.9297V25.6065L23.106 20.1763C23.3807 19.9017 23.5352 19.5297 23.5352 19.1406V14.7461C23.5352 14.5603 23.4993 14.3757 23.4306 14.2025L20.5009 6.78062C20.2778 6.22406 19.7399 5.85938 19.1406 5.85938H17.6758V2.92969H48.5352C49.3446 2.92969 50 2.27432 50 1.46484C50 0.655365 49.3446 0 48.5352 0ZM8.78906 2.92969H14.7461V5.85938H8.78906V2.92969ZM20.4929 14.7461L20.6055 15.028V18.5341L17.6758 21.4638V19.1406C17.6758 18.3311 17.0204 17.6758 16.2109 17.6758H7.32422C6.51474 17.6758 5.85938 18.3311 5.85938 19.1406V21.4638L2.92969 18.5341V15.028L3.04222 14.7461H20.4929Z" fill="#FFC300"/>
<path d="M44.1406 38.2812H5.85938C2.62337 38.2812 0 40.9046 0 44.1406C0 47.3766 2.62337 50 5.85938 50H44.1406C47.3766 50 50 47.3766 50 44.1406C50 40.9046 47.3766 38.2812 44.1406 38.2812ZM5.85938 45.6055C5.05028 45.6055 4.39453 44.9497 4.39453 44.1406C4.39453 43.3315 5.05028 42.6758 5.85938 42.6758C6.66847 42.6758 7.32422 43.3315 7.32422 44.1406C7.32422 44.9497 6.66847 45.6055 5.85938 45.6055ZM19.9532 47.0703H10.9062C11.4094 46.2055 11.7188 45.2133 11.7188 44.1406C11.7188 43.0679 11.4094 42.075 10.9062 41.2098H19.9532C19.45 42.075 19.1406 43.0679 19.1406 44.1406C19.1406 45.2133 19.45 46.2055 19.9532 47.0703ZM25 45.6055C24.1909 45.6055 23.5352 44.9497 23.5352 44.1406C23.5352 43.3315 24.1909 42.6758 25 42.6758C25.8091 42.6758 26.4648 43.3315 26.4648 44.1406C26.4648 44.9497 25.8091 45.6055 25 45.6055ZM39.0938 47.0703H30.0468C30.55 46.2055 30.8594 45.2133 30.8594 44.1406C30.8594 43.0679 30.55 42.075 30.0468 41.2098H39.0938C38.5906 42.075 38.2812 43.0679 38.2812 44.1406C38.2812 45.2133 38.5906 46.2055 39.0938 47.0703ZM44.1406 45.6055C43.3315 45.6055 42.6758 44.9497 42.6758 44.1406C42.6758 43.3315 43.3315 42.6758 44.1406 42.6758C44.9497 42.6758 45.6055 43.3315 45.6055 44.1406C45.6055 44.9497 44.9497 45.6055 44.1406 45.6055Z" fill="#FFC300"/>
<path d="M47.0703 35.8913V27.9297C47.0703 27.1202 46.4149 26.4648 45.6055 26.4648H36.8164C36.0069 26.4648 35.3516 27.1202 35.3516 27.9297V35.3516H44.1406C45.1729 35.3516 46.1494 35.5629 47.0703 35.8913Z" fill="#FFC300"/>
<path d="M30.8594 26.4648H22.0703C21.2608 26.4648 20.6055 27.1202 20.6055 27.9297V35.3516H32.3242V27.9297C32.3242 27.1202 31.6689 26.4648 30.8594 26.4648Z" fill="#FFC300"/>
</g>
<defs>
<clipPath id="clip0_103_103">
<rect width="50" height="50" fill="white"/>
</clipPath>
</defs>
</svg>
