<svg width="25" height="25" viewBox="0 0 25 25" fill="none" xmlns="http://www.w3.org/2000/svg">
<path d="M20.451 8.33021C20.4646 8.5125 20.4646 8.69375 20.4646 8.875C20.4646 14.4219 16.2427 20.8135 8.52709 20.8135C6.15001 20.8135 3.94168 20.125 2.08334 18.9292C2.42084 18.9677 2.74584 18.9813 3.09689 18.9813C5.05834 18.9813 6.86355 18.3188 8.30626 17.1885C6.46147 17.15 4.91563 15.9417 4.3823 14.2792C4.64168 14.3177 4.90209 14.3438 5.17501 14.3438C5.55105 14.3438 5.92918 14.2917 6.28022 14.201C4.35626 13.8115 2.91564 12.1229 2.91564 10.0833V10.0313C3.47501 10.3427 4.12397 10.5375 4.81147 10.5635C3.68126 9.81146 2.94064 8.525 2.94064 7.0698C2.94064 6.29063 3.14793 5.57605 3.51147 4.95313C5.57709 7.49792 8.6823 9.16146 12.1636 9.34375C12.099 9.03125 12.0594 8.7073 12.0594 8.3823C12.0594 6.0698 13.9302 4.18646 16.2552 4.18646C17.4636 4.18646 18.5542 4.69271 19.3208 5.51146C20.2688 5.32917 21.1771 4.97813 21.9833 4.49792C21.6719 5.47188 21.0083 6.29063 20.1386 6.81042C20.9833 6.71875 21.8021 6.48542 22.5542 6.16042C21.9833 6.99167 21.2698 7.7323 20.451 8.33021Z" fill="white"/>
</svg>
