<svg width="25" height="25" viewBox="0 0 25 25" fill="none" xmlns="http://www.w3.org/2000/svg">
<g clip-path="url(#clip0_141_328)">
<path d="M22.5728 7.35834C22.3315 6.43984 21.6232 5.71511 20.724 5.46782C19.0809 5.0075 12.5073 5.00001 12.5073 5.00001C12.5073 5.00001 5.93472 4.99251 4.29053 5.43249C3.40916 5.67764 2.68097 6.41843 2.43754 7.33586C2.0042 9.01228 2 12.4893 2 12.4893C2 12.4893 1.9958 15.9834 2.426 17.6427C2.66733 18.5602 3.37558 19.2849 4.27584 19.5322C5.93577 19.9925 12.4915 20 12.4915 20C12.4915 20 19.0651 20.0075 20.7083 19.5686C21.6064 19.3224 22.3178 18.5987 22.5623 17.6813C22.9967 16.0059 22.9998 12.53 22.9998 12.53C22.9998 12.53 23.0208 9.03476 22.5728 7.35834ZM10.4046 15.7105L10.4098 9.2874L15.8733 12.5043L10.4046 15.7105Z" fill="#72BAFD"/>
</g>
<defs>
<clipPath id="clip0_141_328">
<rect width="25" height="25" fill="white"/>
</clipPath>
</defs>
</svg>
