<svg width="787" height="31" viewBox="0 0 787 31" fill="none" xmlns="http://www.w3.org/2000/svg">
<path d="M3 4L772 4.00007" stroke="#DADADA" stroke-linecap="round"/>
<path d="M5.026 28.168C4.19533 28.168 3.46733 27.944 2.842 27.496C2.21667 27.0387 1.72667 26.4087 1.372 25.606C1.02667 24.794 0.854 23.8513 0.854 22.778C0.854 21.6953 1.02667 20.7527 1.372 19.95C1.72667 19.1473 2.212 18.522 2.828 18.074C3.45333 17.626 4.18133 17.402 5.012 17.402C5.84267 17.402 6.566 17.626 7.182 18.074C7.80733 18.522 8.29267 19.152 8.638 19.964C8.99267 20.7667 9.17 21.7047 9.17 22.778C9.17 23.8513 8.99733 24.794 8.652 25.606C8.30667 26.4087 7.82133 27.0387 7.196 27.496C6.58 27.944 5.85667 28.168 5.026 28.168ZM5.026 26.656C5.53933 26.656 5.98267 26.4973 6.356 26.18C6.72933 25.8627 7.01867 25.4147 7.224 24.836C7.42933 24.2573 7.532 23.5713 7.532 22.778C7.532 21.9847 7.42933 21.2987 7.224 20.72C7.01867 20.1413 6.72933 19.6933 6.356 19.376C5.98267 19.0587 5.53467 18.9 5.012 18.9C4.49867 18.9 4.05533 19.0587 3.682 19.376C3.30867 19.6933 3.01933 20.1413 2.814 20.72C2.60867 21.2987 2.506 21.9847 2.506 22.778C2.506 23.562 2.60867 24.248 2.814 24.836C3.01933 25.4147 3.30867 25.8627 3.682 26.18C4.06467 26.4973 4.51267 26.656 5.026 26.656Z" fill="#DADADA"/>
<path d="M171.732 28.168C171.079 28.168 170.472 28.0467 169.912 27.804C169.352 27.552 168.876 27.2113 168.484 26.782C168.092 26.3527 167.803 25.858 167.616 25.298L169.016 24.71C169.268 25.354 169.637 25.8487 170.122 26.194C170.607 26.5393 171.167 26.712 171.802 26.712C172.175 26.712 172.502 26.656 172.782 26.544C173.062 26.4227 173.277 26.2547 173.426 26.04C173.585 25.8253 173.664 25.578 173.664 25.298C173.664 24.9153 173.557 24.612 173.342 24.388C173.127 24.164 172.81 23.9867 172.39 23.856L170.43 23.24C169.646 22.9973 169.049 22.6287 168.638 22.134C168.227 21.63 168.022 21.042 168.022 20.37C168.022 19.782 168.167 19.2687 168.456 18.83C168.745 18.382 169.142 18.032 169.646 17.78C170.159 17.528 170.743 17.402 171.396 17.402C172.021 17.402 172.591 17.514 173.104 17.738C173.617 17.9527 174.056 18.2513 174.42 18.634C174.793 19.0167 175.064 19.46 175.232 19.964L173.86 20.566C173.655 20.0153 173.333 19.5907 172.894 19.292C172.465 18.9933 171.965 18.844 171.396 18.844C171.051 18.844 170.747 18.9047 170.486 19.026C170.225 19.138 170.019 19.306 169.87 19.53C169.73 19.7447 169.66 19.9967 169.66 20.286C169.66 20.622 169.767 20.9207 169.982 21.182C170.197 21.4433 170.523 21.6393 170.962 21.77L172.782 22.344C173.613 22.596 174.238 22.96 174.658 23.436C175.078 23.9027 175.288 24.486 175.288 25.186C175.288 25.7647 175.134 26.278 174.826 26.726C174.527 27.174 174.112 27.5287 173.58 27.79C173.048 28.042 172.432 28.168 171.732 28.168ZM171.088 29.4V16.17H172.208V29.4H171.088ZM180.271 28.168C179.721 28.168 179.203 28.07 178.717 27.874C178.232 27.6687 177.812 27.384 177.457 27.02C177.103 26.656 176.851 26.2173 176.701 25.704L178.087 25.172C178.265 25.6667 178.554 26.0447 178.955 26.306C179.357 26.5673 179.795 26.698 180.271 26.698C180.663 26.698 181.009 26.6093 181.307 26.432C181.606 26.2547 181.839 26.012 182.007 25.704C182.185 25.396 182.273 25.046 182.273 24.654C182.273 24.2527 182.185 23.9027 182.007 23.604C181.839 23.296 181.606 23.058 181.307 22.89C181.009 22.7127 180.663 22.624 180.271 22.624C179.879 22.624 179.52 22.7127 179.193 22.89C178.867 23.0673 178.629 23.3053 178.479 23.604L177.149 23.31L177.961 17.57H183.519V18.97H178.605L179.235 18.284L178.633 22.68L178.115 22.33C178.395 21.938 178.736 21.6533 179.137 21.476C179.539 21.2987 179.996 21.21 180.509 21.21C181.191 21.21 181.783 21.364 182.287 21.672C182.801 21.9707 183.197 22.3813 183.477 22.904C183.767 23.4173 183.911 24.0007 183.911 24.654C183.911 25.3167 183.753 25.914 183.435 26.446C183.118 26.978 182.684 27.398 182.133 27.706C181.592 28.014 180.971 28.168 180.271 28.168ZM189.746 28.168C188.915 28.168 188.187 27.944 187.562 27.496C186.936 27.0387 186.446 26.4087 186.092 25.606C185.746 24.794 185.574 23.8513 185.574 22.778C185.574 21.6953 185.746 20.7527 186.092 19.95C186.446 19.1473 186.932 18.522 187.548 18.074C188.173 17.626 188.901 17.402 189.732 17.402C190.562 17.402 191.286 17.626 191.902 18.074C192.527 18.522 193.012 19.152 193.358 19.964C193.712 20.7667 193.89 21.7047 193.89 22.778C193.89 23.8513 193.717 24.794 193.372 25.606C193.026 26.4087 192.541 27.0387 191.916 27.496C191.3 27.944 190.576 28.168 189.746 28.168ZM189.746 26.656C190.259 26.656 190.702 26.4973 191.076 26.18C191.449 25.8627 191.738 25.4147 191.944 24.836C192.149 24.2573 192.252 23.5713 192.252 22.778C192.252 21.9847 192.149 21.2987 191.944 20.72C191.738 20.1413 191.449 19.6933 191.076 19.376C190.702 19.0587 190.254 18.9 189.732 18.9C189.218 18.9 188.775 19.0587 188.402 19.376C188.028 19.6933 187.739 20.1413 187.534 20.72C187.328 21.2987 187.226 21.9847 187.226 22.778C187.226 23.562 187.328 24.248 187.534 24.836C187.739 25.4147 188.028 25.8627 188.402 26.18C188.784 26.4973 189.232 26.656 189.746 26.656ZM199.788 28.168C198.958 28.168 198.23 27.944 197.604 27.496C196.979 27.0387 196.489 26.4087 196.134 25.606C195.789 24.794 195.616 23.8513 195.616 22.778C195.616 21.6953 195.789 20.7527 196.134 19.95C196.489 19.1473 196.974 18.522 197.59 18.074C198.216 17.626 198.944 17.402 199.774 17.402C200.605 17.402 201.328 17.626 201.944 18.074C202.57 18.522 203.055 19.152 203.4 19.964C203.755 20.7667 203.932 21.7047 203.932 22.778C203.932 23.8513 203.76 24.794 203.414 25.606C203.069 26.4087 202.584 27.0387 201.958 27.496C201.342 27.944 200.619 28.168 199.788 28.168ZM199.788 26.656C200.302 26.656 200.745 26.4973 201.118 26.18C201.492 25.8627 201.781 25.4147 201.986 24.836C202.192 24.2573 202.294 23.5713 202.294 22.778C202.294 21.9847 202.192 21.2987 201.986 20.72C201.781 20.1413 201.492 19.6933 201.118 19.376C200.745 19.0587 200.297 18.9 199.774 18.9C199.261 18.9 198.818 19.0587 198.444 19.376C198.071 19.6933 197.782 20.1413 197.576 20.72C197.371 21.2987 197.268 21.9847 197.268 22.778C197.268 23.562 197.371 24.248 197.576 24.836C197.782 25.4147 198.071 25.8627 198.444 26.18C198.827 26.4973 199.275 26.656 199.788 26.656ZM205.729 28V17.402H207.311V24.5L206.695 24.346L210.489 20.426H212.463L209.607 23.464L212.589 28H210.769L208.109 23.982L209.047 23.856L206.807 26.236L207.311 25.186V28H205.729Z" fill="#DADADA"/>
<path d="M369.732 28.168C369.079 28.168 368.472 28.0467 367.912 27.804C367.352 27.552 366.876 27.2113 366.484 26.782C366.092 26.3527 365.803 25.858 365.616 25.298L367.016 24.71C367.268 25.354 367.637 25.8487 368.122 26.194C368.607 26.5393 369.167 26.712 369.802 26.712C370.175 26.712 370.502 26.656 370.782 26.544C371.062 26.4227 371.277 26.2547 371.426 26.04C371.585 25.8253 371.664 25.578 371.664 25.298C371.664 24.9153 371.557 24.612 371.342 24.388C371.127 24.164 370.81 23.9867 370.39 23.856L368.43 23.24C367.646 22.9973 367.049 22.6287 366.638 22.134C366.227 21.63 366.022 21.042 366.022 20.37C366.022 19.782 366.167 19.2687 366.456 18.83C366.745 18.382 367.142 18.032 367.646 17.78C368.159 17.528 368.743 17.402 369.396 17.402C370.021 17.402 370.591 17.514 371.104 17.738C371.617 17.9527 372.056 18.2513 372.42 18.634C372.793 19.0167 373.064 19.46 373.232 19.964L371.86 20.566C371.655 20.0153 371.333 19.5907 370.894 19.292C370.465 18.9933 369.965 18.844 369.396 18.844C369.051 18.844 368.747 18.9047 368.486 19.026C368.225 19.138 368.019 19.306 367.87 19.53C367.73 19.7447 367.66 19.9967 367.66 20.286C367.66 20.622 367.767 20.9207 367.982 21.182C368.197 21.4433 368.523 21.6393 368.962 21.77L370.782 22.344C371.613 22.596 372.238 22.96 372.658 23.436C373.078 23.9027 373.288 24.486 373.288 25.186C373.288 25.7647 373.134 26.278 372.826 26.726C372.527 27.174 372.112 27.5287 371.58 27.79C371.048 28.042 370.432 28.168 369.732 28.168ZM369.088 29.4V16.17H370.208V29.4H369.088ZM376.549 28V18.97H374.547V17.57H378.187V28H376.549ZM380.513 28V20.426H382.025V22.064L381.829 21.812C381.988 21.2987 382.277 20.9113 382.697 20.65C383.117 20.3887 383.598 20.258 384.139 20.258C384.746 20.258 385.282 20.4213 385.749 20.748C386.225 21.0653 386.542 21.49 386.701 22.022L386.253 22.064C386.477 21.4573 386.818 21.0047 387.275 20.706C387.742 20.4073 388.274 20.258 388.871 20.258C389.394 20.258 389.865 20.3793 390.285 20.622C390.714 20.8647 391.055 21.2007 391.307 21.63C391.559 22.0593 391.685 22.5493 391.685 23.1V28H390.103V23.534C390.103 23.1513 390.033 22.8293 389.893 22.568C389.762 22.2973 389.576 22.092 389.333 21.952C389.1 21.8027 388.824 21.728 388.507 21.728C388.19 21.728 387.91 21.8027 387.667 21.952C387.424 22.092 387.233 22.2973 387.093 22.568C386.953 22.8387 386.883 23.1607 386.883 23.534V28H385.315V23.534C385.315 23.1513 385.245 22.8293 385.105 22.568C384.974 22.2973 384.788 22.092 384.545 21.952C384.312 21.8027 384.032 21.728 383.705 21.728C383.388 21.728 383.108 21.8027 382.865 21.952C382.622 22.092 382.431 22.2973 382.291 22.568C382.16 22.8387 382.095 23.1607 382.095 23.534V28H380.513Z" fill="#DADADA"/>
<path d="M565.732 28.168C565.079 28.168 564.472 28.0467 563.912 27.804C563.352 27.552 562.876 27.2113 562.484 26.782C562.092 26.3527 561.803 25.858 561.616 25.298L563.016 24.71C563.268 25.354 563.637 25.8487 564.122 26.194C564.607 26.5393 565.167 26.712 565.802 26.712C566.175 26.712 566.502 26.656 566.782 26.544C567.062 26.4227 567.277 26.2547 567.426 26.04C567.585 25.8253 567.664 25.578 567.664 25.298C567.664 24.9153 567.557 24.612 567.342 24.388C567.127 24.164 566.81 23.9867 566.39 23.856L564.43 23.24C563.646 22.9973 563.049 22.6287 562.638 22.134C562.227 21.63 562.022 21.042 562.022 20.37C562.022 19.782 562.167 19.2687 562.456 18.83C562.745 18.382 563.142 18.032 563.646 17.78C564.159 17.528 564.743 17.402 565.396 17.402C566.021 17.402 566.591 17.514 567.104 17.738C567.617 17.9527 568.056 18.2513 568.42 18.634C568.793 19.0167 569.064 19.46 569.232 19.964L567.86 20.566C567.655 20.0153 567.333 19.5907 566.894 19.292C566.465 18.9933 565.965 18.844 565.396 18.844C565.051 18.844 564.747 18.9047 564.486 19.026C564.225 19.138 564.019 19.306 563.87 19.53C563.73 19.7447 563.66 19.9967 563.66 20.286C563.66 20.622 563.767 20.9207 563.982 21.182C564.197 21.4433 564.523 21.6393 564.962 21.77L566.782 22.344C567.613 22.596 568.238 22.96 568.658 23.436C569.078 23.9027 569.288 24.486 569.288 25.186C569.288 25.7647 569.134 26.278 568.826 26.726C568.527 27.174 568.112 27.5287 567.58 27.79C567.048 28.042 566.432 28.168 565.732 28.168ZM565.088 29.4V16.17H566.208V29.4H565.088ZM572.549 28V18.97H570.547V17.57H574.187V28H572.549ZM577.213 28V26.18H578.823V28H577.213ZM584.649 28.168C584.099 28.168 583.581 28.07 583.095 27.874C582.61 27.6687 582.19 27.384 581.835 27.02C581.481 26.656 581.229 26.2173 581.079 25.704L582.465 25.172C582.643 25.6667 582.932 26.0447 583.333 26.306C583.735 26.5673 584.173 26.698 584.649 26.698C585.041 26.698 585.387 26.6093 585.685 26.432C585.984 26.2547 586.217 26.012 586.385 25.704C586.563 25.396 586.651 25.046 586.651 24.654C586.651 24.2527 586.563 23.9027 586.385 23.604C586.217 23.296 585.984 23.058 585.685 22.89C585.387 22.7127 585.041 22.624 584.649 22.624C584.257 22.624 583.898 22.7127 583.571 22.89C583.245 23.0673 583.007 23.3053 582.857 23.604L581.527 23.31L582.339 17.57H587.897V18.97H582.983L583.613 18.284L583.011 22.68L582.493 22.33C582.773 21.938 583.114 21.6533 583.515 21.476C583.917 21.2987 584.374 21.21 584.887 21.21C585.569 21.21 586.161 21.364 586.665 21.672C587.179 21.9707 587.575 22.3813 587.855 22.904C588.145 23.4173 588.289 24.0007 588.289 24.654C588.289 25.3167 588.131 25.914 587.813 26.446C587.496 26.978 587.062 27.398 586.511 27.706C585.97 28.014 585.349 28.168 584.649 28.168ZM590.022 28V20.426H591.534V22.064L591.338 21.812C591.496 21.2987 591.786 20.9113 592.206 20.65C592.626 20.3887 593.106 20.258 593.648 20.258C594.254 20.258 594.791 20.4213 595.258 20.748C595.734 21.0653 596.051 21.49 596.21 22.022L595.762 22.064C595.986 21.4573 596.326 21.0047 596.784 20.706C597.25 20.4073 597.782 20.258 598.38 20.258C598.902 20.258 599.374 20.3793 599.794 20.622C600.223 20.8647 600.564 21.2007 600.816 21.63C601.068 22.0593 601.194 22.5493 601.194 23.1V28H599.612V23.534C599.612 23.1513 599.542 22.8293 599.402 22.568C599.271 22.2973 599.084 22.092 598.842 21.952C598.608 21.8027 598.333 21.728 598.016 21.728C597.698 21.728 597.418 21.8027 597.176 21.952C596.933 22.092 596.742 22.2973 596.602 22.568C596.462 22.8387 596.392 23.1607 596.392 23.534V28H594.824V23.534C594.824 23.1513 594.754 22.8293 594.614 22.568C594.483 22.2973 594.296 22.092 594.054 21.952C593.82 21.8027 593.54 21.728 593.214 21.728C592.896 21.728 592.616 21.8027 592.374 21.952C592.131 22.092 591.94 22.2973 591.8 22.568C591.669 22.8387 591.604 23.1607 591.604 23.534V28H590.022Z" fill="#DADADA"/>
<path d="M760.732 28.168C760.079 28.168 759.472 28.0467 758.912 27.804C758.352 27.552 757.876 27.2113 757.484 26.782C757.092 26.3527 756.803 25.858 756.616 25.298L758.016 24.71C758.268 25.354 758.637 25.8487 759.122 26.194C759.607 26.5393 760.167 26.712 760.802 26.712C761.175 26.712 761.502 26.656 761.782 26.544C762.062 26.4227 762.277 26.2547 762.426 26.04C762.585 25.8253 762.664 25.578 762.664 25.298C762.664 24.9153 762.557 24.612 762.342 24.388C762.127 24.164 761.81 23.9867 761.39 23.856L759.43 23.24C758.646 22.9973 758.049 22.6287 757.638 22.134C757.227 21.63 757.022 21.042 757.022 20.37C757.022 19.782 757.167 19.2687 757.456 18.83C757.745 18.382 758.142 18.032 758.646 17.78C759.159 17.528 759.743 17.402 760.396 17.402C761.021 17.402 761.591 17.514 762.104 17.738C762.617 17.9527 763.056 18.2513 763.42 18.634C763.793 19.0167 764.064 19.46 764.232 19.964L762.86 20.566C762.655 20.0153 762.333 19.5907 761.894 19.292C761.465 18.9933 760.965 18.844 760.396 18.844C760.051 18.844 759.747 18.9047 759.486 19.026C759.225 19.138 759.019 19.306 758.87 19.53C758.73 19.7447 758.66 19.9967 758.66 20.286C758.66 20.622 758.767 20.9207 758.982 21.182C759.197 21.4433 759.523 21.6393 759.962 21.77L761.782 22.344C762.613 22.596 763.238 22.96 763.658 23.436C764.078 23.9027 764.288 24.486 764.288 25.186C764.288 25.7647 764.134 26.278 763.826 26.726C763.527 27.174 763.112 27.5287 762.58 27.79C762.048 28.042 761.432 28.168 760.732 28.168ZM760.088 29.4V16.17H761.208V29.4H760.088ZM765.785 28V26.81L768.641 23.758C769.201 23.1607 769.64 22.68 769.957 22.316C770.284 21.9427 770.517 21.616 770.657 21.336C770.807 21.056 770.881 20.762 770.881 20.454C770.881 19.95 770.727 19.5627 770.419 19.292C770.111 19.012 769.715 18.872 769.229 18.872C768.725 18.872 768.291 19.0167 767.927 19.306C767.563 19.586 767.311 19.9967 767.171 20.538L765.715 20.118C765.827 19.5673 766.051 19.0913 766.387 18.69C766.723 18.2793 767.134 17.962 767.619 17.738C768.114 17.514 768.646 17.402 769.215 17.402C769.878 17.402 770.457 17.528 770.951 17.78C771.446 18.0227 771.829 18.3633 772.099 18.802C772.379 19.2407 772.519 19.7493 772.519 20.328C772.519 20.7107 772.445 21.084 772.295 21.448C772.155 21.8027 771.936 22.1807 771.637 22.582C771.339 22.974 770.956 23.4173 770.489 23.912L767.969 26.6H772.715V28H765.785ZM774.398 28V20.426H775.91V22.064L775.714 21.812C775.872 21.2987 776.162 20.9113 776.582 20.65C777.002 20.3887 777.482 20.258 778.024 20.258C778.63 20.258 779.167 20.4213 779.634 20.748C780.11 21.0653 780.427 21.49 780.586 22.022L780.138 22.064C780.362 21.4573 780.702 21.0047 781.16 20.706C781.626 20.4073 782.158 20.258 782.756 20.258C783.278 20.258 783.75 20.3793 784.17 20.622C784.599 20.8647 784.94 21.2007 785.192 21.63C785.444 22.0593 785.57 22.5493 785.57 23.1V28H783.988V23.534C783.988 23.1513 783.918 22.8293 783.778 22.568C783.647 22.2973 783.46 22.092 783.218 21.952C782.984 21.8027 782.709 21.728 782.392 21.728C782.074 21.728 781.794 21.8027 781.552 21.952C781.309 22.092 781.118 22.2973 780.978 22.568C780.838 22.8387 780.768 23.1607 780.768 23.534V28H779.2V23.534C779.2 23.1513 779.13 22.8293 778.99 22.568C778.859 22.2973 778.672 22.092 778.43 21.952C778.196 21.8027 777.916 21.728 777.59 21.728C777.272 21.728 776.992 21.8027 776.75 21.952C776.507 22.092 776.316 22.2973 776.176 22.568C776.045 22.8387 775.98 23.1607 775.98 23.534V28H774.398Z" fill="#DADADA"/>
<circle cx="5" cy="4" r="3.5" fill="white" stroke="#DADADA"/>
<circle cx="190" cy="4" r="3.5" fill="white" stroke="#DADADA"/>
<circle cx="382" cy="4" r="3.5" fill="white" stroke="#DADADA"/>
<circle cx="575" cy="4" r="3.5" fill="white" stroke="#DADADA"/>
<circle cx="772" cy="4" r="3.5" fill="white" stroke="#DADADA"/>
</svg>
