<svg width="170" height="88" viewBox="0 0 170 88" fill="none" xmlns="http://www.w3.org/2000/svg">
<g clip-path="url(#clip0_44_57)">
<path d="M32.0093 24.1345C32.0093 26.7529 31.1045 28.8021 29.1816 30.3959C27.3719 31.9896 24.7705 32.6727 21.6035 32.6727H8.70925V15.7102H21.6035C24.8836 15.7102 27.485 16.3933 29.2947 17.8732C31.1045 19.2393 32.0093 21.4023 32.0093 24.1345ZM49.8802 7.74127V24.7038V58.0595H58.5895V7.74127H49.8802ZM142.741 21.2885C142.741 19.6947 143.42 18.2147 144.777 17.0763C146.134 15.9379 148.17 15.3687 150.659 15.3687C152.921 15.3687 155.07 15.8241 157.219 16.621C158.576 17.1902 159.933 17.8732 161.291 18.6701L166.381 12.4088C164.458 11.1565 162.422 10.0181 160.386 9.33506C157.558 8.31048 154.278 7.74127 150.772 7.74127C148.397 7.74127 146.134 8.08279 144.098 8.76585C142.063 9.4489 140.366 10.3596 138.896 11.7257C137.425 12.978 136.294 14.458 135.502 16.2794C134.711 17.9871 134.258 19.9224 134.258 22.0854C134.258 24.3622 134.597 26.2975 135.389 27.8913C136.068 29.4851 137.199 30.8512 138.556 31.9897C139.914 33.1281 141.61 34.0388 143.646 34.8357C145.682 35.6326 147.944 36.3157 150.546 36.8849C152.808 37.4541 154.617 38.0233 156.088 38.4787C157.558 39.0479 158.576 39.5032 159.481 40.0724C160.273 40.6417 160.838 41.3247 161.178 42.0078C161.517 42.6908 161.63 43.4877 161.63 44.3984C161.63 46.3338 160.838 47.8137 159.255 48.9521C157.671 50.0906 155.635 50.6598 152.921 50.6598C149.867 50.6598 147.152 50.0905 144.664 49.066C142.854 48.2691 141.158 47.2445 139.348 45.8784L134.258 52.1397C136.633 53.9612 139.122 55.4411 141.836 56.4657C145.23 57.718 148.849 58.401 152.581 58.401C155.183 58.401 157.445 58.0595 159.594 57.3765C161.743 56.6934 163.553 55.7827 165.023 54.5304C166.494 53.2781 167.738 51.6843 168.53 49.8629C169.321 48.0414 169.774 45.9922 169.774 43.6015C169.774 41.5524 169.434 39.7309 168.756 38.251C168.077 36.771 167.059 35.4049 165.815 34.2665C164.571 33.1281 162.874 32.1035 160.951 31.3066C159.029 30.5097 156.653 29.8267 154.165 29.1436C151.79 28.5744 149.867 28.0052 148.397 27.5498C146.926 26.9806 145.682 26.5252 144.89 25.8422C143.985 25.273 143.42 24.5899 143.081 23.9069C142.854 23.11 142.741 22.1992 142.741 21.2885ZM42.5283 58.1733L28.9554 39.0479C30.7651 38.5925 32.3486 37.9094 33.819 36.9987C35.2894 36.088 36.5336 35.0634 37.5516 33.8111C38.5695 32.5589 39.4744 31.0789 40.0399 29.3713C40.6055 27.6636 40.9448 25.8422 40.9448 23.6792C40.9448 21.1746 40.4923 19.0116 39.7006 16.9625C38.7957 14.9133 37.6647 13.3195 35.9681 11.9534C34.3846 10.5873 32.4617 9.56274 30.0865 8.76585C27.8244 7.96895 25.2229 7.62743 22.2821 7.62743H0V58.0595H8.70925V40.5278H19.7937L32.1224 58.0595H42.5283V58.1733Z" fill="white"/>
<path fill-rule="evenodd" clip-rule="evenodd" d="M86.4138 18.784C88.4498 17.8732 90.7119 17.4179 93.2003 17.4179L93.4265 14.0026C90.3726 13.8887 87.5449 14.458 84.9434 15.7102L86.4138 18.784ZM80.1929 23.793C81.5502 21.8577 83.3599 20.3777 85.3959 19.2393L83.9255 16.1656C81.324 17.5317 79.175 19.467 77.4784 21.8577L80.1929 23.793ZM77.3653 31.3066C77.5915 28.9159 78.3832 26.7529 79.6274 24.8176L76.7997 22.8823C75.3293 25.273 74.3114 28.119 73.9721 31.0789L77.3653 31.3066ZM75.5556 40.7555L78.6094 39.2756C77.7046 37.2264 77.2522 34.9495 77.2522 32.445L73.859 32.2173C73.7458 35.1772 74.4245 38.1371 75.5556 40.7555ZM76.1211 41.6662C77.4784 44.2846 79.4012 46.4476 81.7764 48.1552L83.6993 45.3092C81.7764 43.9431 80.3061 42.1216 79.175 40.0724L76.1211 41.6662ZM82.6813 48.8383C85.0565 50.3182 87.8842 51.3428 90.825 51.6844L91.0512 48.2691C88.676 48.0414 86.5269 47.2445 84.6041 45.9922L82.6813 48.8383ZM91.9561 51.7982C95.01 51.912 97.8377 51.3428 100.439 50.0906L98.9687 47.0168C96.9328 47.9276 94.6707 48.3829 92.1823 48.3829L91.9561 51.7982ZM101.457 49.6352C104.059 48.2691 106.208 46.3338 107.904 43.9431L105.077 42.0078C103.719 43.9431 101.91 45.423 99.8736 46.5615L101.457 49.6352ZM108.583 43.0323C110.053 40.6417 111.071 37.7956 111.411 34.8357L108.017 34.608C107.791 36.9987 106.999 39.1617 105.755 41.097L108.583 43.0323ZM108.017 33.3558L111.411 33.5834C111.524 30.5097 110.958 27.6636 109.714 25.0453L106.66 26.5252C107.565 28.6882 108.017 30.9651 108.017 33.3558ZM101.683 20.3777C103.606 21.7439 105.077 23.5653 106.208 25.6145L109.261 24.1345C107.904 21.5162 105.981 19.3532 103.606 17.6455L101.683 20.3777ZM94.6707 12.0673C98.0639 12.4088 101.118 13.5472 103.832 15.2549L106.208 11.7257C102.927 9.56274 99.0818 8.19664 94.8969 7.85511L94.6707 12.0673ZM75.6687 20.8331C77.5915 18.1009 80.0798 15.9379 83.0206 14.458L81.0978 10.5873C77.4784 12.4088 74.4245 15.141 72.1623 18.4424L75.6687 20.8331ZM71.9361 30.9651C72.2754 27.5498 73.4065 24.4761 75.1031 21.7439L71.4837 19.3532C69.3347 22.6546 67.9774 26.5252 67.6381 30.7374L71.9361 30.9651ZM69.9002 43.4877L73.7458 41.5524C72.3886 38.5925 71.7099 35.4049 71.9361 31.9897L67.6381 31.6481C67.4118 35.9741 68.2036 39.9586 69.9002 43.4877ZM70.3526 44.5123C72.1623 48.1552 74.8769 51.229 78.157 53.5058L80.5323 49.9767C77.8177 48.0414 75.6687 45.5369 74.1983 42.577L70.3526 44.5123ZM79.175 54.1889C82.4551 56.3519 86.3007 57.718 90.4857 58.0595L90.825 53.7335C87.4318 53.392 84.3779 52.2536 81.6633 50.5459L79.175 54.1889ZM91.5037 58.1734C95.6886 58.401 99.6474 57.4903 103.154 55.8965L101.231 52.0259C98.2901 53.392 95.1231 54.075 91.7299 53.8474L91.5037 58.1734ZM104.172 55.3273C107.791 53.5058 110.845 50.7736 113.107 47.4722L109.601 45.0815C107.678 47.8137 105.19 49.9767 102.249 51.4567L104.172 55.3273ZM113.446 33.8111L117.745 34.1527C117.971 29.9405 117.066 25.956 115.482 22.4269L111.637 24.3622C112.881 27.0944 113.56 30.3959 113.446 33.8111ZM81.0978 7.96895C84.9434 6.14748 89.3546 5.23674 93.8789 5.46442L94.3313 -8.27014e-07C88.7891 -0.341527 83.4731 0.796894 78.7226 3.07374L81.0978 7.96895ZM108.357 10.3596C111.976 12.8642 114.917 16.2794 116.953 20.2639L121.816 17.8732C119.328 13.0918 115.822 8.99353 111.411 5.80595L108.357 10.3596ZM120.12 50.7736C122.947 46.3338 124.757 41.2109 125.21 35.6326L119.894 35.2911C119.441 39.8448 117.971 44.0569 115.709 47.6999L120.12 50.7736ZM94.2182 17.5317C96.5935 17.7594 98.7425 18.5563 100.665 19.8085L102.588 16.9625C100.213 15.4825 97.3852 14.458 94.4444 14.1164L94.2182 17.5317Z" fill="white"/>
<path d="M169.434 76.8435H148.283V77.7542H169.434V76.8435Z" fill="white"/>
<path d="M48.7368 67.9253V73.9226H48.0153V67.9253H48.7368Z" fill="white"/>
<path d="M57.2128 67.9253V73.9226H56.5145L53.2676 69.2138H53.2094V73.9226H52.4878V67.9253H53.1861L56.4447 72.6459H56.5029V67.9253H57.2128Z" fill="white"/>
<path d="M60.635 68.5696V67.9253H65.104V68.5696H63.2303V73.9226H62.5087V68.5696H60.635Z" fill="white"/>
<path d="M68.5218 73.9226V67.9253H72.1179V68.5696H69.2434V70.596H71.9317V71.2402H69.2434V73.2784H72.1645V73.9226H68.5218Z" fill="white"/>
<path d="M75.7227 73.9226V67.9253H76.4443V73.2784H79.2141V73.9226H75.7227Z" fill="white"/>
<path d="M82.6356 73.9226V67.9253H83.3572V73.2784H86.127V73.9226H82.6356Z" fill="white"/>
<path d="M90.27 67.9253V73.9226H89.5485V67.9253H90.27Z" fill="white"/>
<path d="M98.0943 69.7995C98.0303 69.6023 97.9459 69.4256 97.8412 69.2695C97.7384 69.1113 97.6152 68.9766 97.4717 68.8653C97.3301 68.7541 97.1691 68.6691 96.9887 68.6106C96.8083 68.552 96.6105 68.5227 96.3952 68.5227C96.0421 68.5227 95.7211 68.6145 95.4321 68.798C95.1431 68.9815 94.9133 69.2519 94.7426 69.6091C94.5719 69.9664 94.4866 70.4047 94.4866 70.924C94.4866 71.4433 94.5729 71.8816 94.7455 72.2388C94.9181 72.5961 95.1518 72.8665 95.4467 73.05C95.7415 73.2335 96.0732 73.3252 96.4417 73.3252C96.7831 73.3252 97.0837 73.252 97.3436 73.1056C97.6055 72.9572 97.8092 72.7483 97.9546 72.4789C98.102 72.2076 98.1757 71.8884 98.1757 71.5214L98.3969 71.5682H96.6046V70.924H98.874V71.5682C98.874 72.0621 98.7693 72.4916 98.5598 72.8567C98.3523 73.2218 98.0652 73.5048 97.6986 73.7059C97.3339 73.9051 96.915 74.0046 96.4417 74.0046C95.9141 74.0046 95.4506 73.8797 95.051 73.6298C94.6534 73.3799 94.343 73.0246 94.12 72.5639C93.8988 72.1031 93.7883 71.5565 93.7883 70.924C93.7883 70.4496 93.8513 70.023 93.9774 69.6443C94.1054 69.2636 94.2858 68.9395 94.5186 68.6721C94.7513 68.4046 95.0267 68.1996 95.3448 68.0571C95.6629 67.9146 96.013 67.8433 96.3952 67.8433C96.7094 67.8433 97.0023 67.8912 97.2738 67.9868C97.5473 68.0805 97.7907 68.2143 98.0041 68.388C98.2194 68.5598 98.3988 68.7658 98.5423 69.0059C98.6859 69.2441 98.7848 69.5086 98.8391 69.7995H98.0943Z" fill="white"/>
<path d="M102.414 73.9226V67.9253H106.01V68.5696H103.136V70.596H105.824V71.2402H103.136V73.2784H106.057V73.9226H102.414Z" fill="white"/>
<path d="M114.34 67.9253V73.9226H113.642L110.395 69.2138H110.337V73.9226H109.615V67.9253H110.313L113.572 72.6459H113.63V67.9253H114.34Z" fill="white"/>
<path d="M117.762 68.5696V67.9253H122.231V68.5696H120.357V73.9226H119.636V68.5696H117.762Z" fill="white"/>
<path d="M55.8015 79.6408H56.6627L58.6877 84.6191H58.7575L60.7825 79.6408H61.6437V85.6381H60.9687V81.0816H60.9105L59.0485 85.6381H58.3968L56.5347 81.0816H56.4765V85.6381H55.8015V79.6408Z" fill="white"/>
<path d="M65.6391 85.6381H64.8827L67.0706 79.6408H67.8154L70.0033 85.6381H69.2469L67.4663 80.5896H67.4197L65.6391 85.6381ZM65.9184 83.2954H68.9675V83.9397H65.9184V83.2954Z" fill="white"/>
<path d="M78.0305 81.515H77.309C77.2663 81.3061 77.1916 81.1226 77.0849 80.9645C76.9802 80.8063 76.8522 80.6736 76.7009 80.5662C76.5515 80.4569 76.3857 80.3749 76.2034 80.3202C76.021 80.2656 75.831 80.2382 75.6331 80.2382C75.2723 80.2382 74.9455 80.33 74.6526 80.5135C74.3617 80.697 74.1299 80.9674 73.9573 81.3246C73.7866 81.6819 73.7012 82.1202 73.7012 82.6395C73.7012 83.1588 73.7866 83.5971 73.9573 83.9543C74.1299 84.3116 74.3617 84.582 74.6526 84.7655C74.9455 84.949 75.2723 85.0407 75.6331 85.0407C75.831 85.0407 76.021 85.0134 76.2034 84.9587C76.3857 84.9041 76.5515 84.8231 76.7009 84.7157C76.8522 84.6064 76.9802 84.4726 77.0849 84.3145C77.1916 84.1544 77.2663 83.9709 77.309 83.764H78.0305C77.9762 84.0705 77.8773 84.3448 77.7337 84.5868C77.5902 84.8289 77.4118 85.0349 77.1984 85.2047C76.985 85.3726 76.7455 85.5005 76.4798 85.5883C76.216 85.6762 75.9338 85.7201 75.6331 85.7201C75.1249 85.7201 74.673 85.5952 74.2773 85.3453C73.8816 85.0954 73.5703 84.7401 73.3434 84.2794C73.1164 83.8186 73.003 83.272 73.003 82.6395C73.003 82.007 73.1164 81.4603 73.3434 80.9996C73.5703 80.5389 73.8816 80.1836 74.2773 79.9337C74.673 79.6838 75.1249 79.5588 75.6331 79.5588C75.9338 79.5588 76.216 79.6028 76.4798 79.6906C76.7455 79.7785 76.985 79.9073 77.1984 80.0772C77.4118 80.2451 77.5902 80.45 77.7337 80.6921C77.8773 80.9322 77.9762 81.2065 78.0305 81.515Z" fill="white"/>
<path d="M81.5008 85.6381V79.6408H82.2223V82.3115H85.3994V79.6408H86.121V85.6381H85.3994V82.9557H82.2223V85.6381H81.5008Z" fill="white"/>
<path d="M90.5913 79.6408V85.6381H89.8698V79.6408H90.5913Z" fill="white"/>
<path d="M99.0673 79.6408V85.6381H98.369L95.1221 80.9293H95.0639V85.6381H94.3424V79.6408H95.0406L98.2992 84.3614H98.3574V79.6408H99.0673Z" fill="white"/>
<path d="M102.815 85.6381V79.6408H106.412V80.2851H103.537V82.3115H106.225V82.9557H103.537V84.9939H106.458V85.6381H102.815Z" fill="white"/>
<path d="M113.275 81.1402C113.24 80.8434 113.098 80.613 112.85 80.4491C112.602 80.2851 112.297 80.2031 111.937 80.2031C111.673 80.2031 111.442 80.246 111.244 80.3319C111.048 80.4178 110.895 80.5359 110.784 80.6863C110.676 80.8366 110.621 81.0074 110.621 81.1987C110.621 81.3588 110.659 81.4964 110.735 81.6116C110.813 81.7249 110.911 81.8195 111.032 81.8957C111.152 81.9699 111.278 82.0314 111.41 82.0802C111.542 82.127 111.663 82.1651 111.774 82.1944L112.379 82.3584C112.534 82.3994 112.707 82.456 112.897 82.5282C113.089 82.6004 113.272 82.699 113.447 82.824C113.623 82.947 113.769 83.1051 113.883 83.2984C113.997 83.4916 114.055 83.7288 114.055 84.01C114.055 84.334 113.97 84.6269 113.802 84.8885C113.635 85.1501 113.39 85.358 113.068 85.5122C112.748 85.6664 112.359 85.7435 111.902 85.7435C111.475 85.7435 111.105 85.6742 110.793 85.5356C110.483 85.397 110.238 85.2038 110.06 84.9558C109.883 84.7079 109.784 84.4199 109.76 84.0919H110.505C110.525 84.3184 110.6 84.5058 110.732 84.6542C110.866 84.8006 111.035 84.9099 111.238 84.9822C111.444 85.0525 111.665 85.0876 111.902 85.0876C112.177 85.0876 112.424 85.0427 112.644 84.9529C112.863 84.8611 113.036 84.7342 113.164 84.5722C113.292 84.4082 113.356 84.2169 113.356 83.9982C113.356 83.7991 113.301 83.6371 113.191 83.5121C113.08 83.3872 112.935 83.2857 112.754 83.2076C112.574 83.1295 112.379 83.0612 112.169 83.0026L111.436 82.7918C110.971 82.657 110.602 82.4648 110.331 82.2149C110.059 81.965 109.923 81.638 109.923 81.2339C109.923 80.8981 110.013 80.6052 110.194 80.3554C110.376 80.1035 110.621 79.9083 110.927 79.7697C111.235 79.6291 111.58 79.5588 111.96 79.5588C112.344 79.5588 112.685 79.6281 112.984 79.7668C113.283 79.9034 113.519 80.0908 113.694 80.329C113.87 80.5672 113.963 80.8376 113.973 81.1402H113.275Z" fill="white"/>
<path d="M21.3772 76.8435H0.226215V77.7542H21.3772V76.8435Z" fill="white"/>
</g>
<defs>
<clipPath id="clip0_44_57">
<rect width="170" height="88" fill="white"/>
</clipPath>
</defs>
</svg>
