<svg width="110" height="14" viewBox="0 0 110 14" fill="none" xmlns="http://www.w3.org/2000/svg">
<path d="M105.293 13.0958H110V0.904238H105.293V13.0958ZM65.8102 1.62117L63.8254 7.1587H63.6312L61.517 1.62117C61.3228 1.07974 61.082 0.904238 60.4096 0.904238H54.5703V13.0958H58.8635V5.71363H59.0792L61.8226 12.3975C62.0204 12.9016 62.2361 13.0958 62.8042 13.0958H64.3719C64.9364 13.0958 65.1342 12.9203 65.3499 12.3975L68.0934 5.71363H68.3127V13.0958H72.7317V0.904238H66.9176C66.2452 0.904238 66.0043 1.07974 65.8102 1.62117ZM41.8779 8.77552H45.1427V8.86508C45.1427 9.7351 44.8371 10.0637 44.686 10.1869C44.5566 10.2915 44.3157 10.3251 43.7044 10.3251H41.637C40.961 10.3251 40.7668 10.2915 40.6338 10.1869C40.4396 10.0301 40.1556 9.45505 40.1556 7.00181C40.1556 4.54484 40.4396 4.00714 40.6338 3.85031C40.7668 3.74576 40.961 3.70842 41.637 3.70842H43.5966C44.251 3.70842 44.4451 3.7607 44.5566 3.85031C44.7076 3.9698 44.9917 4.11169 45.0132 5.08627H49.4969C49.4322 3.01389 48.9756 2.12521 48.2133 1.53149C47.6272 1.07969 46.7104 0.904175 45.078 0.904175H40.0046C38.4153 0.904175 37.5847 1.13195 36.9987 1.60244C36.1069 2.3007 35.3447 3.64121 35.3447 7.00181C35.3447 10.3624 36.1069 11.7029 36.9987 12.3974C37.5847 12.8679 38.4153 13.0957 40.0046 13.0957H45.0564C46.473 13.0957 47.4726 12.8866 48.1054 12.3825C48.954 11.7029 49.63 10.6761 49.63 7.73367V6.25127H41.8779V8.77552ZM98.5516 6.14678C98.4222 6.25132 98.1813 6.28494 97.3327 6.28494H94.8086V3.67487H97.3327C98.1813 3.67487 98.4006 3.70855 98.5516 3.81303C98.771 3.96985 98.9004 4.2499 98.9004 4.9631C98.9004 5.67629 98.7925 5.97128 98.5516 6.14678ZM103.823 4.36939C103.823 2.68163 103.496 2.07298 102.82 1.53154C102.234 1.06107 101.381 0.904238 99.8604 0.904238H90.1236V13.0958H94.8086V8.91742H97.0954C98.0518 8.91742 98.246 8.98461 98.4653 9.14145C98.7062 9.31695 98.8357 9.49245 98.8788 10.3961C98.922 11.4416 98.8896 12.2071 98.8896 13.0958H103.701C103.701 13.0958 103.715 11.2512 103.668 10.0637C103.603 8.30503 102.733 7.90549 101.209 7.62918V7.59181C102.974 7.31549 103.823 6.63591 103.823 4.36937M83.3998 10.116C83.2703 10.2206 83.051 10.2579 82.3966 10.2579H80.4586C79.8078 10.2579 79.5884 10.2205 79.459 10.116C79.3044 9.99651 79.0455 9.68286 79.0455 7.00184C79.0455 4.33576 79.3044 4.00717 79.459 3.88395C79.5884 3.77939 79.8078 3.74579 80.4586 3.74579H82.3966C83.051 3.74579 83.2703 3.77948 83.3998 3.88395C83.5508 4.00717 83.8132 4.33576 83.8132 7.00184C83.8132 9.66419 83.5508 9.99651 83.3998 10.116ZM86.9702 1.60246C86.3841 1.13198 85.5571 0.904202 83.9643 0.904202H78.8909C77.3016 0.904202 76.4746 1.13198 75.8886 1.60246C74.9933 2.30073 74.231 3.64123 74.231 7.00184C74.231 10.3624 74.9933 11.7029 75.8886 12.3975C76.4746 12.868 77.3016 13.0957 78.8909 13.0957H83.9643C85.5571 13.0957 86.3841 12.868 86.9702 12.3975C87.8655 11.7029 88.6278 10.3624 88.6278 7.00184C88.6278 3.64123 87.8655 2.30073 86.9702 1.60246ZM26.9166 1.62115L24.9354 7.15868H24.7376L22.627 1.62115C22.4293 1.07972 22.192 0.90422 21.516 0.90422H15.6803V13.0958H19.9699V5.71362H20.1856L22.9326 12.3975C23.1268 12.9016 23.3461 13.0958 23.9106 13.0958H25.4783C26.0464 13.0958 26.2406 12.9203 26.4599 12.3975L29.2034 5.71362H29.4191V13.0958H33.8417V0.90422H28.0276C27.3516 0.90422 27.1143 1.07972 26.9166 1.62115M8.84156 10.0488C8.58268 10.2579 8.18717 10.3438 7.14444 10.3438H4.68146V3.65621H7.14444C8.21234 3.65621 8.58268 3.72708 8.84156 3.93625C9.12561 4.17896 9.25506 4.70173 9.25506 7.00188C9.25506 9.29828 9.10405 9.83972 8.84156 10.0488ZM12.5235 1.93483C11.6066 1.20296 10.2798 0.904238 7.86357 0.904238H0V13.0958H7.86357C10.2798 13.0958 11.6066 12.8157 12.5235 12.0839C13.5698 11.2512 14.0696 10.0488 14.0696 7.00188C14.0696 3.95492 13.5698 2.76751 12.5235 1.93483Z" fill="#232323"/>
</svg>
