<svg width="149" height="35" viewBox="0 0 149 35" fill="none" xmlns="http://www.w3.org/2000/svg">
<path d="M23.6202 16.1449C23.6202 12.0298 21.5237 8.40252 18.3455 6.27989C20.2401 4.32409 22.2864 2.39348 24.4697 0.547852C21.9139 2.05352 19.5098 3.78583 17.2878 5.65244C15.6516 4.78786 13.7863 4.30206 11.8091 4.30206C5.2873 4.30206 0 9.60286 0 16.1449C0 19.1007 1.07964 21.8014 2.86125 23.8779C0.601542 28.7789 0.205048 32.7241 2.19798 34.0566C4.33215 35.4847 8.97396 32.8962 11.7599 28.6813C11.7599 28.6813 7.45075 32.5782 5.08748 31.6853C3.62808 31.1324 3.62495 28.9006 4.82489 25.6973C6.78121 27.14 9.1968 27.9878 11.8091 27.9878C15.0448 27.9878 17.973 26.6846 20.1082 24.5725L20.5267 25.3647C25.6738 24.9471 41.0419 24.541 41.0419 24.541C41.0419 23.795 30.868 24.4697 22.5196 21.1414C23.2237 19.6253 23.6202 17.9318 23.6202 16.1449ZM1.41859 16.1449C1.41859 10.3887 6.07192 5.72589 11.8091 5.72589C13.348 5.72589 14.8074 6.0606 16.1213 6.65867C10.4899 11.651 6.1305 17.4544 3.54962 22.4677C2.21263 20.7133 1.41859 18.5246 1.41859 16.1449ZM11.8091 26.5682C9.38197 26.5682 7.15155 25.734 5.3825 24.3322C7.4382 19.6767 11.6312 13.4274 17.3474 7.32704C20.2652 9.17267 22.2016 12.4316 22.2016 16.1449C22.2016 17.7314 21.847 19.236 21.214 20.5843C19.401 19.7417 17.7073 18.6883 16.273 17.3589L19.4084 23.2546C17.5106 25.2912 14.8094 26.5682 11.8091 26.5682Z" fill="#232323"/>
<path d="M93.602 15.1517L95.5022 12.5393L88.8809 12.5371L90.5135 10.2969H97.1337L99.036 7.68555H85.8193L76.7306 20.1766H89.9462L91.8454 17.563H85.2303L86.9797 15.1517L93.602 15.1517Z" fill="#232323"/>
<path d="M102.991 7.68555L93.6826 20.1766H100.434L109.742 7.68555H102.991Z" fill="#232323"/>
<path d="M124.944 7.68555L120.271 14.0166L118.837 7.68555H113.608L104.389 20.1766H108.814L113.445 13.9022L114.868 20.1766H120.153L129.371 7.68555H124.944Z" fill="#232323"/>
<path d="M147.396 7.68773L136.865 7.68555C135.06 7.68555 133.463 8.58403 132.452 9.97988L127.016 17.4982C126.811 17.7763 126.695 18.1272 126.695 18.5058C126.695 19.4268 127.41 20.1766 128.297 20.1766H138.826C140.629 20.1766 142.233 19.277 143.239 17.8833L144.551 16.0756H146.068L147.971 13.4476H139.905L137.357 16.9677C137.096 17.3271 136.68 17.5613 136.215 17.5613H134.36C134.125 17.5613 133.939 17.3645 133.939 17.1292C133.939 17.0287 133.973 16.9388 134.025 16.8682L138.348 10.8944C138.604 10.5286 139.019 10.2986 139.488 10.2986H141.345C141.577 10.2986 141.76 10.4954 141.76 10.734C141.76 10.8302 141.73 10.9211 141.678 10.9928L140.976 11.9662H147.52L148.677 10.3639C148.879 10.0858 149 9.73708 149 9.3595C149 8.43535 148.279 7.68769 147.396 7.68769" fill="#232323"/>
<path d="M80.2994 9.3575C80.2994 8.43434 79.5818 7.68555 78.6969 7.68555H68.1694C66.3637 7.68555 64.7643 8.58196 63.7552 9.97794L58.3164 17.498C58.1152 17.7783 57.994 18.127 57.994 18.5046C57.994 19.4267 58.7136 20.1766 59.5985 20.1766H70.1271C71.9318 20.1766 73.5333 19.2759 74.5414 17.882L79.9812 10.3641C80.1814 10.0849 80.2994 9.73511 80.2994 9.3575ZM72.9779 10.991L68.6591 16.9674C68.3963 17.3269 67.9815 17.5601 67.5134 17.5601H65.6574C65.4295 17.5601 65.2416 17.3643 65.2416 17.1279C65.2416 17.0273 65.2734 16.9375 65.3258 16.8669L69.6456 10.8925C69.9064 10.5342 70.3211 10.2978 70.7903 10.2978H72.6442C72.8742 10.2978 73.0621 10.4935 73.0621 10.7321C73.0621 10.8284 73.0313 10.9204 72.9779 10.991Z" fill="#232323"/>
<path d="M54.9919 14.2365C56.2924 13.9316 57.4213 13.1539 58.1988 12.0885L59.4528 10.3641C59.6564 10.0849 59.7784 9.73618 59.7784 9.3575C59.7784 8.43434 59.0558 7.68555 58.1636 7.68555H51.3818H44.784L35.6886 20.1766H42.1706H49.5313C51.3498 20.1766 52.9615 19.2759 53.9788 17.882L55.2617 16.1213C55.424 15.8977 55.5191 15.6175 55.5191 15.3169C55.5191 14.874 55.3124 14.4836 54.9919 14.2365ZM48.8676 15.8474L48.0519 16.9696C47.7883 17.3269 47.3717 17.5622 46.8982 17.5622H44.1886L45.943 15.1511H48.5337C48.7632 15.1511 48.9534 15.3457 48.9534 15.5843C48.9534 15.6848 48.9214 15.7768 48.8676 15.8474ZM52.4032 10.991L51.7106 11.9462C51.4459 12.3056 51.0303 12.5399 50.5568 12.5399L47.8462 12.5377L49.4796 10.2977H52.0683C52.2998 10.2977 52.487 10.4935 52.487 10.732C52.487 10.8283 52.4569 10.9203 52.4032 10.9909" fill="#232323"/>
</svg>
