<svg width="197" height="33" viewBox="0 0 197 33" fill="none" xmlns="http://www.w3.org/2000/svg">
<path fill-rule="evenodd" clip-rule="evenodd" d="M144.952 25.6878C144.952 26.5327 145.003 27.3815 144.937 28.2216C144.873 29.0282 145.684 29.7714 146.43 29.7521C146.854 29.7412 147.278 29.7671 147.701 29.7466C148.554 29.7053 149.169 29.087 149.174 28.2558C149.183 26.5462 149.182 24.8366 149.174 23.1271C149.171 22.3944 148.832 21.9494 148.118 21.7307C147.448 21.5253 146.748 21.5466 146.085 21.6886C145.454 21.8239 144.902 22.3521 144.942 23.1532C144.984 23.9962 144.952 24.8428 144.952 25.6878ZM141.663 25.6752C141.663 24.8304 141.667 23.9857 141.661 23.141C141.654 22.0866 141.933 21.1312 142.639 20.3092C143.134 19.732 143.794 19.4011 144.491 19.1389C145.17 18.8837 145.879 18.7621 146.615 18.763C147.624 18.7646 148.624 18.76 149.592 19.115C150.529 19.458 151.3 19.9881 151.839 20.8149C152.272 21.4784 152.45 22.2234 152.458 22.9941C152.479 24.7816 152.494 26.57 152.457 28.357C152.418 30.2193 151.51 31.5414 149.673 32.2294C148.994 32.4835 148.286 32.6022 147.55 32.614C146.393 32.6327 145.256 32.5857 144.173 32.132C142.881 31.5905 142.051 30.671 141.785 29.3143C141.703 28.8947 141.678 28.4608 141.668 28.0325C141.65 27.2471 141.663 26.4611 141.663 25.6752ZM35.9265 19.0747H37.3897C37.8816 19.0747 38.3737 19.0685 38.8655 19.076C39.8526 19.0907 39.6533 18.9118 40.1227 19.8857C40.6188 20.9144 41.0823 21.9588 41.573 22.9901C42.2419 24.3959 42.9243 25.7952 43.5984 27.1986C43.7061 27.4226 43.801 27.6527 43.969 27.8641V27.2774V19.9922C43.969 19.8935 43.9679 19.7947 43.9692 19.696C43.9766 19.1208 44.0101 19.0805 44.5606 19.076C45.2296 19.0705 45.8988 19.0673 46.5677 19.0778C46.979 19.0843 47.0315 19.1494 47.0491 19.5687C47.054 19.687 47.0501 19.8056 47.0501 19.924V31.829V32.5506C46.8551 32.575 46.7238 32.6053 46.5925 32.6059C45.6086 32.6099 44.6243 32.5931 43.641 32.6161C43.2712 32.6247 43.0795 32.4861 42.9188 32.1597C41.7094 29.6999 40.4828 27.2486 39.2613 24.7949C39.1741 24.6199 39.0841 24.4466 38.9253 24.2797V32.484C38.4816 32.6305 36.776 32.6635 35.9512 32.547C35.8968 31.0678 35.9349 29.5752 35.928 28.0836C35.921 26.603 35.9265 25.1221 35.9265 23.6415V19.0747ZM168.456 25.6644C168.456 26.5273 168.447 27.3904 168.459 28.253C168.47 29.0843 169.073 29.6904 169.929 29.7323C170.352 29.7529 170.777 29.7526 171.2 29.7325C172.056 29.6916 172.669 29.0937 172.676 28.2569C172.691 26.5313 172.691 24.8054 172.674 23.0798C172.665 22.2497 172.041 21.661 171.178 21.6234C170.796 21.6067 170.412 21.6288 170.029 21.6169C169.127 21.5889 168.401 22.3927 168.446 23.194C168.491 24.0153 168.456 24.8408 168.456 25.6644ZM175.97 25.797C175.97 26.6607 175.964 27.5243 175.971 28.388C175.98 29.4791 175.601 30.4378 174.842 31.2196C174.253 31.8264 173.491 32.1966 172.643 32.3774C171.104 32.7057 169.574 32.7303 168.06 32.2424C167.086 31.9284 166.327 31.3485 165.763 30.5154C165.336 29.8857 165.188 29.1758 165.178 28.4495C165.153 26.6048 165.143 24.7589 165.177 22.9145C165.21 21.0802 166.211 19.7781 167.991 19.136C168.674 18.8897 169.381 18.7623 170.116 18.763C171.126 18.764 172.126 18.7595 173.095 19.1152C174.391 19.5911 175.373 20.3635 175.762 21.7023C175.88 22.1115 175.947 22.5457 175.961 22.9709C175.99 23.9121 175.97 24.8548 175.97 25.797ZM82.1944 24.5186C82.9367 24.5186 83.6139 24.5391 84.2891 24.5116C84.7692 24.4921 85.0122 24.2274 85.0373 23.7564C85.0562 23.4028 85.0107 23.0441 85.0496 22.6936C85.1188 22.0676 84.7565 21.7076 84.0259 21.6929C83.5467 21.6833 83.067 21.6858 82.5877 21.6928C82.4567 21.6948 82.3261 21.7329 82.1944 21.7544V24.5186ZM86.9984 25.5718C87.1672 25.6644 87.3027 25.7397 87.4391 25.8133C88.2866 26.2703 88.7276 27.0172 88.7617 27.9265C88.8174 29.4048 88.774 30.8868 88.7689 32.3672C88.7687 32.4216 88.7332 32.4759 88.7013 32.5661H85.5541C85.5416 32.3645 85.5205 32.1748 85.52 31.9851C85.5169 30.7414 85.4878 29.4968 85.5305 28.2545C85.554 27.5647 85.1066 27.0938 84.3948 27.1288C83.6802 27.1639 82.9627 27.1366 82.1734 27.1366C82.1629 28.9609 82.1748 30.729 82.1665 32.4807C81.724 32.6315 79.7234 32.6637 78.9892 32.546C78.8691 32.0843 78.8614 19.6639 78.9901 19.1106C79.1529 19.0997 79.3278 19.0778 79.5028 19.0776C81.1644 19.0751 82.8261 19.061 84.4874 19.0834C85.163 19.0924 85.8362 19.1897 86.484 19.4058C87.3001 19.6777 87.8388 20.2299 88.085 21.0305C88.205 21.4201 88.2663 21.8372 88.2839 22.245C88.3074 22.7942 88.3002 23.3506 88.2382 23.8962C88.1659 24.5322 87.8377 25.0412 87.2643 25.3764C87.1834 25.4237 87.1124 25.4873 86.9984 25.5718ZM133.52 24.6102C134.257 24.6102 134.933 24.6321 135.608 24.603C136.118 24.5812 136.354 24.3061 136.367 23.7972C136.377 23.3983 136.38 22.9984 136.366 22.5997C136.349 22.0591 136.16 21.802 135.63 21.7652C134.94 21.7176 134.245 21.7536 133.52 21.7536V24.6102ZM140.047 32.8994H136.889C136.875 32.7064 136.849 32.5168 136.848 32.3271C136.844 31.0834 136.846 29.8395 136.846 28.5957C136.846 28.4354 136.853 28.2736 136.836 28.1147C136.787 27.6538 136.485 27.3435 136.028 27.2815C135.889 27.2626 135.748 27.2691 135.607 27.2689C134.929 27.2678 134.251 27.2684 133.521 27.2684C133.507 27.5089 133.488 27.7023 133.488 27.8954C133.485 29.3197 133.486 30.744 133.486 32.1683C133.486 32.3088 133.49 32.4495 133.48 32.5894C133.467 32.803 133.345 32.9223 133.132 32.9231C132.194 32.9265 131.255 32.9247 130.372 32.9247C130.302 32.8591 130.285 32.8471 130.274 32.8312C130.262 32.8158 130.248 32.7965 130.248 32.7789C130.237 28.3667 130.227 23.9545 130.219 19.5422C130.219 19.4236 130.237 19.3049 130.251 19.1378C130.407 19.1176 130.558 19.0814 130.71 19.081C132.394 19.0769 134.078 19.056 135.762 19.0902C136.374 19.1027 136.999 19.1927 137.592 19.3483C138.737 19.6487 139.462 20.4834 139.598 21.8334C139.674 22.5811 139.593 23.3504 139.525 24.1051C139.466 24.77 139.075 25.2455 138.489 25.5592C138.443 25.5839 138.406 25.6259 138.392 25.6369C138.762 25.9485 139.141 26.2349 139.48 26.5615C139.923 26.987 140.091 27.5566 140.1 28.1445C140.124 29.6488 140.106 31.1535 140.103 32.6581C140.103 32.7154 140.077 32.7728 140.047 32.8994ZM157.246 24.6392C157.986 24.5906 158.725 24.7356 159.456 24.5457C159.948 24.4181 160.131 24.2149 160.151 23.7297C160.165 23.3951 160.129 23.0571 160.16 22.725C160.214 22.1608 159.986 21.8124 159.306 21.736C158.621 21.6588 157.92 21.7189 157.246 21.7189V24.6392ZM157.246 30.0901C157.912 30.0901 158.536 30.1177 159.155 30.0793C159.507 30.0576 159.858 29.9448 160.199 29.8412C160.472 29.7582 160.625 29.5462 160.63 29.2602C160.639 28.8263 160.656 28.3905 160.627 27.9584C160.599 27.5356 160.287 27.1893 159.859 27.1727C158.983 27.1386 158.104 27.1625 157.246 27.1625V30.0901ZM154.025 32.5839V19.1338C154.207 19.1149 154.361 19.0855 154.515 19.0851C156.143 19.0817 157.772 19.0483 159.398 19.0975C160.229 19.1226 161.07 19.174 161.863 19.523C162.494 19.8008 162.917 20.2582 163.152 20.8517C163.322 21.2814 163.367 21.7663 163.419 22.2318C163.46 22.6025 163.422 22.9813 163.428 23.3562C163.444 24.3252 163.077 25.0798 162.138 25.5553C162.411 25.7415 162.674 25.9056 162.92 26.0905C163.564 26.5753 163.906 27.2291 163.904 28.0201C163.902 28.746 163.976 29.473 163.809 30.1996C163.574 31.2255 162.964 31.9294 162.002 32.3308C161.544 32.5218 161.051 32.6197 160.538 32.6173C158.529 32.6079 156.519 32.6159 154.51 32.6153C154.371 32.6153 154.233 32.598 154.025 32.5839ZM26.5195 19.0748V19.7933C26.5195 22.5693 26.517 25.3455 26.5235 28.1216C26.5241 28.3952 26.5564 28.6734 26.6144 28.9411C26.7975 29.789 27.2509 29.9282 27.8648 30C28.3206 30.0532 28.7902 30.0368 29.2495 30.0011C29.9235 29.9488 30.4238 29.4171 30.4737 28.7488C30.4868 28.5712 30.48 28.3921 30.48 28.2137C30.4804 25.4178 30.4798 22.6218 30.4805 19.826C30.4808 19.0743 30.4821 19.0737 31.255 19.0725C31.8781 19.0717 32.5013 19.0688 33.1244 19.0735C33.7145 19.0779 33.7478 19.1088 33.7517 19.6726C33.7566 20.4064 33.7529 21.14 33.7529 21.8737C33.7529 24.154 33.7654 26.4344 33.7478 28.7146C33.7385 29.9114 33.3482 30.9693 32.4015 31.7722C31.86 32.2314 31.2313 32.5376 30.5357 32.6872C29.0241 33.0123 27.5187 33.0394 26.0306 32.5478C24.6176 32.081 23.7408 31.1219 23.4065 29.7026C23.2943 29.2266 23.2563 28.7245 23.2538 28.2341C23.2401 25.4185 23.2471 22.6027 23.2472 19.7869C23.2472 19.6877 23.2418 19.5881 23.2496 19.4896C23.2749 19.1714 23.336 19.0836 23.6391 19.0794C24.5615 19.0667 25.4843 19.0748 26.5195 19.0748ZM68.0753 32.6128V19.1284C68.2461 19.108 68.3984 19.0741 68.5508 19.0738C71.0724 19.0705 73.5941 19.0697 76.1156 19.0729C76.6831 19.0738 76.7202 19.1156 76.7235 19.6863C76.728 20.3965 76.7246 21.1069 76.7246 21.7884C76.5092 22.0029 76.2764 21.9293 76.0663 21.9304C74.6655 21.9369 73.2646 21.9337 71.8636 21.9338H71.2433V24.2773H76.3156V26.9921C75.7658 27.0848 75.2102 27.0242 74.6605 27.0351C74.1003 27.0462 73.5398 27.0375 72.9794 27.0375H71.2809C71.1404 27.5053 71.2278 27.9585 71.2124 28.4038C71.1967 28.8556 71.2089 29.3085 71.2089 29.7899C71.8346 29.9002 72.4311 29.8304 73.0231 29.8431C73.6232 29.8558 74.2237 29.8459 74.8241 29.8459H76.6043C76.748 30.2857 76.7771 31.8035 76.6578 32.5884C75.9627 32.6407 75.2487 32.6049 74.5372 32.6113C73.8168 32.6179 73.0962 32.6128 72.3758 32.6128H70.2744H68.0753ZM54.4717 19.172C54.6496 19.1323 54.7794 19.0796 54.9097 19.0782C55.72 19.0705 56.5304 19.0806 57.3406 19.071C57.6467 19.0674 57.8191 19.1622 57.9016 19.4763C58.1967 20.6009 58.5246 21.7172 58.8301 22.8391C59.3788 24.8546 59.9193 26.8721 60.4668 28.888C60.5063 29.0338 60.5743 29.172 60.676 29.4355C60.9682 28.3571 61.2258 27.4004 61.4864 26.4443C62.1085 24.1628 62.7301 21.8809 63.3568 19.6003C63.4976 19.0882 63.5175 19.0783 64.0655 19.0751C64.7947 19.0707 65.524 19.0707 66.2533 19.0766C66.4255 19.078 66.5974 19.1112 66.8386 19.1373C65.5307 23.6526 64.2435 28.0969 62.9438 32.5837C61.4226 32.6482 59.9319 32.5933 58.3821 32.6173C57.0433 28.1435 55.7926 23.6715 54.4717 19.172ZM112.596 32.5886H109.325C108.412 29.2057 107.503 25.8375 106.594 22.4692C106.561 22.4668 106.529 22.4644 106.497 22.462C106.313 23.1377 106.128 23.8129 105.947 24.4893C105.261 27.0566 104.576 29.6245 103.888 32.1912C103.832 32.3997 103.779 32.6189 103.48 32.6173C102.523 32.6126 101.567 32.6157 100.538 32.6157C100.557 32.4186 100.549 32.2688 100.588 32.1316C100.961 30.8041 101.343 29.4791 101.72 28.1526C102.323 26.031 102.922 23.9078 103.528 21.7868C103.749 21.0103 103.982 20.2364 104.22 19.4645C104.335 19.0904 104.352 19.078 104.772 19.0757C105.952 19.0693 107.131 19.0691 108.31 19.076C108.711 19.0782 108.803 19.1465 108.91 19.5179C109.205 20.5396 109.487 21.565 109.779 22.5878C110.211 24.1029 110.647 25.617 111.082 27.1314C111.561 28.7973 112.041 30.463 112.517 32.1297C112.555 32.2613 112.565 32.4008 112.596 32.5886ZM188.047 29.6455C188.348 29.7159 188.632 29.7791 188.915 29.8491C190.042 30.1278 191.179 30.3289 192.348 30.2606C192.448 30.2547 192.551 30.2698 192.648 30.252C193.511 30.0935 193.774 29.8884 193.732 29.0651C193.723 28.8669 193.735 28.6676 193.73 28.469C193.718 27.9819 193.604 27.7865 193.125 27.6401C192.422 27.4249 191.7 27.2681 190.993 27.0604C190.383 26.8809 189.767 26.7036 189.182 26.4563C188.356 26.1068 187.932 25.4195 187.839 24.5541C187.763 23.8468 187.717 23.1322 187.726 22.4218C187.734 21.8308 187.82 21.2354 188.099 20.6941C188.53 19.8596 189.299 19.4764 190.162 19.3119C190.941 19.1635 191.745 19.0557 192.534 19.0726C193.746 19.0988 194.959 19.214 196.157 19.4313C196.293 19.4559 196.421 19.5182 196.551 19.5624C196.673 20.0011 196.686 21.6426 196.565 22.2483C196.32 22.2196 196.07 22.1912 195.821 22.1607C194.893 22.0472 193.967 21.8985 193.036 21.8329C192.525 21.7969 192 21.8721 191.49 21.9536C191.201 21.9997 190.999 22.2266 190.987 22.543C190.973 22.92 190.981 23.298 190.985 23.6756C190.99 24.0149 191.237 24.166 191.507 24.2554C191.961 24.4054 192.424 24.5304 192.887 24.6484C193.795 24.8796 194.723 25.0595 195.558 25.5032C196.293 25.8937 196.794 26.4401 196.904 27.3368C197.031 28.3715 197.048 29.3949 196.858 30.4111C196.694 31.2885 196.235 31.9935 195.385 32.3881C194.708 32.7022 193.996 32.8899 193.249 32.9072C192.468 32.9253 191.686 32.9367 190.906 32.9068C190.027 32.8733 189.167 32.6989 188.332 32.4158C188.109 32.3404 187.949 32.2375 187.955 31.9569C187.971 31.2815 187.96 30.6055 187.966 29.9298C187.967 29.8563 188.006 29.783 188.047 29.6455ZM91.0207 29.6665C91.6827 29.8101 92.2656 29.9331 92.8469 30.0632C93.7321 30.2613 94.6295 30.2951 95.5305 30.2525C95.7472 30.2424 95.9838 30.213 96.1693 30.1146C96.3499 30.019 96.559 29.8462 96.6089 29.6671C96.7085 29.3107 96.7506 28.9252 96.7374 28.5546C96.7198 28.0574 96.465 27.6898 95.9463 27.5584C95.4436 27.4311 94.9407 27.305 94.4366 27.1835C93.6035 26.9829 92.7732 26.7941 92.0013 26.3872C91.2505 25.9915 90.9112 25.336 90.7721 24.5823C90.6542 23.9444 90.6468 23.2814 90.6449 22.6293C90.6438 22.2387 90.7296 21.8443 90.8071 21.4577C91.058 20.2055 91.9337 19.5621 93.1066 19.3117C93.8619 19.1504 94.6532 19.0444 95.4213 19.0767C96.812 19.1354 98.2151 19.1776 99.5704 19.5671C99.6971 19.9809 99.7173 21.5879 99.5961 22.247C99.2715 22.2142 98.9418 22.183 98.6127 22.1467C97.9395 22.0725 97.2663 21.9974 96.5935 21.9185C96.4159 21.8976 96.2408 21.856 96.0634 21.834C95.5198 21.767 94.9847 21.8433 94.4562 21.9574C94.2086 22.011 94.0049 22.1583 93.9846 22.4341C93.9544 22.8454 93.9237 23.2597 93.9426 23.6705C93.9579 23.9999 94.1826 24.2032 94.5054 24.2872C94.9883 24.4127 95.4736 24.5298 95.9542 24.6629C96.7999 24.8969 97.6585 25.0793 98.4561 25.4759C99.4331 25.9617 99.9441 26.6974 99.9185 27.793C99.905 28.3693 99.9314 28.9466 99.9137 29.5227C99.904 29.8368 99.8544 30.152 99.7977 30.4622C99.5749 31.6821 98.7606 32.3426 97.6199 32.6682C97.0041 32.844 96.3741 32.9437 95.7269 32.9224C95.2461 32.9065 94.7643 32.9135 94.283 32.9208C93.334 32.935 92.4191 32.7278 91.5109 32.4938C90.9805 32.3572 90.98 32.3353 90.9763 31.8005C90.9724 31.2437 90.973 30.6869 90.9772 30.1302C90.9782 29.9959 91.0016 29.862 91.0207 29.6665ZM176.654 19.0709H186.996C187.132 19.5171 187.147 21.2635 187.015 21.8934H183.514C183.464 22.6544 183.497 23.3614 183.491 24.0666C183.484 24.7593 183.489 25.4521 183.489 26.145V28.2826V30.361V32.4813C183.062 32.6334 181.022 32.6676 180.244 32.5345C180.204 31.8457 180.231 31.1389 180.226 30.4336C180.221 29.7408 180.225 29.048 180.225 28.3552V26.2174V24.139V21.9328C179.029 21.8638 177.856 21.9455 176.702 21.8873C176.583 21.4296 176.557 19.8911 176.654 19.0709ZM117.091 29.8473H122.385C122.516 30.3692 122.523 32.0026 122.412 32.535C121.962 32.6343 114.51 32.6503 113.89 32.5475C113.872 32.4267 113.836 32.2952 113.835 32.1636C113.832 27.9974 113.832 23.8312 113.834 19.6652C113.835 19.1244 113.881 19.0781 114.403 19.0743C115.261 19.0679 116.119 19.0726 117.05 19.0726C117.065 19.3356 117.089 19.5623 117.089 19.7891C117.092 22.9087 117.091 26.0284 117.091 29.1481V29.8473ZM52.6156 32.6173H49.5808C49.5607 32.4672 49.5275 32.3356 49.5275 32.2037C49.5247 28.0255 49.5241 23.8474 49.5264 19.6691C49.5267 19.1231 49.5657 19.0813 50.0657 19.076C50.7295 19.0687 51.3935 19.0698 52.0576 19.0756C52.5655 19.0801 52.6121 19.1264 52.614 19.6508C52.6188 20.8587 52.6156 22.0666 52.6156 23.2745V31.8884V32.6173ZM2.22078 0.0961914C2.21765 4.74488 2.2018 9.39356 2.21863 14.042C2.22404 15.5482 3.15019 16.6837 4.70096 17.093C5.89562 17.4082 7.12513 17.4196 8.32267 17.0966C9.96539 16.6537 10.856 15.4659 10.8676 13.7685C10.8817 11.742 10.8764 9.7157 10.8795 7.68925C10.88 7.41115 10.8921 7.13245 10.8801 6.85495C10.8037 5.08977 11.7355 4.58145 13.6531 4.96572C14.3417 5.10375 14.7653 5.85009 14.5359 6.56399C14.3284 7.20929 13.9469 7.80566 13.5977 8.39776C13.3465 8.82366 12.9946 9.19042 12.7352 9.61239C11.7996 11.1341 11.972 12.686 13.2398 13.9638C14.6861 15.4216 16.1632 16.8494 17.6137 18.3032C17.7423 18.4321 17.7728 18.6572 17.849 18.8376C12.3183 18.836 6.78763 18.8346 1.25699 18.8333C0.725887 18.6432 0.324227 18.3245 0.17171 17.7582C0.168466 12.2646 0.165234 6.77111 0.162109 1.27753C0.294435 0.670168 0.739245 0.348752 1.25929 0.0961914H2.22078ZM17.9787 0.209084C18.4843 0.342105 18.7996 0.661865 18.9305 1.16305C18.928 6.06227 18.9254 10.9617 18.9228 15.8613C17.671 14.6333 16.408 13.4162 15.1729 12.1718C14.679 11.6743 14.6991 11.039 15.1585 10.3743C15.6564 9.65383 16.1906 8.95684 16.6615 8.21968C17.6838 6.61926 17.4819 4.5316 16.0976 3.47209C15.5082 3.02089 14.72 2.73948 13.9793 2.58893C12.6906 2.32718 11.3902 2.40677 10.17 2.99993C8.89227 3.62113 8.25107 4.65654 8.23737 6.04724C8.21382 8.4502 8.22897 10.8535 8.23066 13.2567C8.23114 13.8437 8.24255 14.4556 7.61998 14.7633C6.88155 15.1285 6.10128 15.1364 5.3673 14.7513C4.90843 14.5106 4.84655 14.0399 4.84751 13.5602C4.85244 10.9783 4.84846 8.3964 4.84954 5.81436C4.85038 3.94754 4.85425 2.08061 4.85666 0.213666C9.23062 0.212114 13.6047 0.210635 17.9787 0.209084Z" fill="#232323"/>
</svg>
