<svg width="93" height="17" viewBox="0 0 93 17" fill="none" xmlns="http://www.w3.org/2000/svg">
<path d="M23.0034 0.797008H20.8817L14.5724 15.4417L14.3818 15.8747H18.6263L19.8682 12.8598H26.1583L27.4012 15.8747H31.6458L25.1256 0.797008H23.0034ZM23.0034 10.436H20.8817L23.0034 5.31112L25.1448 10.436H23.0034Z" fill="#232323"/>
<path d="M4.66954 3.81301H14.764V0.797008H0.425003V15.8747H4.66954V9.23309H13.2922V6.37516H4.66954V3.81301Z" fill="#232323"/>
<path d="M46.9588 11.0468L38.7764 0.797008H34.6852V15.8747H38.7764V6.21709L46.3664 15.8747H51.0501V0.797008H46.9588V11.0468Z" fill="#232323"/>
<path d="M83.0927 13.9239C81.6203 13.9436 80.4732 13.4509 79.6706 12.4653C78.8679 11.46 78.466 10.1007 78.4846 8.34628C78.4846 6.65117 78.8679 5.29078 79.5939 4.28602C80.3391 3.24118 81.5059 2.76817 83.0927 2.76817C84.622 2.78792 85.7116 3.18248 86.3232 3.99024C86.9353 4.79857 87.3558 5.74464 87.5847 6.82843L92.575 6.80865C92.2497 4.73929 91.3326 3.14297 89.8417 2.05861C88.331 0.955063 86.1321 0.383835 83.2454 0.343756C79.9766 0.324564 77.5866 1.05384 76.0568 2.5322C74.527 4.00999 73.7812 5.96138 73.8009 8.34628C73.8201 11.342 74.7378 13.4113 76.5731 14.5544C78.3888 15.7172 80.626 16.3088 83.2454 16.3483C86.1321 16.3872 88.331 15.816 89.8417 14.6329C91.3326 13.4712 92.2497 11.8737 92.575 9.84384H87.5847C87.1264 12.5437 85.6355 13.9041 83.0927 13.9239Z" fill="#232323"/>
<path d="M66.5175 10.4156C66.5175 11.4007 66.1343 12.1503 65.3507 12.682C64.5672 13.2138 63.592 13.4898 62.4072 13.4898C61.3548 13.5095 60.4179 13.2538 59.5769 12.7413C58.7162 12.2282 58.2957 11.4599 58.2957 10.4156V0.797008H54.0517V10.7707C54.0517 11.8545 54.3375 12.7611 54.9124 13.4712C55.4665 14.1801 56.1739 14.7519 57.0336 15.1855C57.8751 15.5992 58.7737 15.9142 59.7494 16.0915C60.724 16.2693 61.6039 16.3483 62.4072 16.368C63.1332 16.368 63.9742 16.289 64.9302 16.131C65.9048 15.9543 66.822 15.6585 67.6833 15.2442C68.544 14.8107 69.27 14.2388 69.863 13.5095C70.4746 12.7808 70.761 11.8737 70.761 10.7707V0.797008H66.5175V10.4156Z" fill="#232323"/>
</svg>
