<svg width="100" height="14" viewBox="0 0 100 14" fill="none" xmlns="http://www.w3.org/2000/svg">
<path fill-rule="evenodd" clip-rule="evenodd" d="M94.3769 0.46423L91.5783 8.36785H91.5181L90.7254 0.46423H84.4973L79.9534 13.2905H85.1634L87.9697 5.3683H88.0299L88.9367 13.2905H95.0444L99.5873 0.46423H94.3769ZM73.7968 8.52939H70.6828L74.1371 3.08685H74.1973L73.7968 8.52939ZM71.5937 0.46423L61.8407 13.2905H67.7692L69.133 11.0443H73.5643L73.3385 13.2905H79.2656L78.5987 0.46423H71.5937ZM63.4987 9.58912C65.1588 4.90179 55.6186 6.14025 56.5154 3.60767C56.719 3.03301 57.4552 2.47599 58.653 2.47599C59.7308 2.47599 60.0168 3.1045 59.7498 3.8588L59.6416 4.16468H64.8511C65.8244 1.41581 64.1846 0.212646 59.3339 0.212646C54.6339 0.212646 51.8253 1.6312 50.91 4.21853C49.3009 8.76332 58.4878 7.50541 57.591 10.0384C57.3425 10.7384 56.4932 11.2783 55.3557 11.2783C54.2774 11.2783 53.6688 10.8832 54.0575 9.78685L54.1652 9.48142H48.7756L48.6177 9.9312C47.6751 12.5896 49.9127 13.5425 54.524 13.5425C59.4339 13.5425 62.5308 12.3199 63.4987 9.58912ZM43.5439 6.87645C42.3158 10.3443 41.8054 11.2783 40.0991 11.2783C38.3923 11.2783 38.543 10.3443 39.7715 6.87645C40.9991 3.40948 41.5104 2.47599 43.2168 2.47599C44.9231 2.47599 44.7715 3.40948 43.5439 6.87645ZM44.0181 0.212646C38.3294 0.212646 35.7217 2.08142 34.0226 6.87645C32.3244 11.6742 33.6086 13.5425 39.2973 13.5425C44.9855 13.5425 47.5937 11.6742 49.2928 6.87645C50.991 2.08142 49.7063 0.212646 44.0181 0.212646ZM27.4439 6.87645C26.2158 10.3443 25.7054 11.2783 23.9986 11.2783C22.2923 11.2783 22.4434 10.3443 23.671 6.87645C24.8996 3.40948 25.41 2.47599 27.1163 2.47599C28.8235 2.47599 28.6719 3.40948 27.4439 6.87645ZM27.9186 0.212646C22.229 0.212646 19.6222 2.08142 17.9226 6.87645C16.224 11.6742 17.5081 13.5425 23.1968 13.5425C28.886 13.5425 31.4937 11.6742 33.1923 6.87645C34.8914 2.08142 33.6068 0.212646 27.9186 0.212646ZM11.3733 6.87645C10.1448 10.3443 9.68462 10.8832 7.52851 10.8832H6.42081L9.25882 2.87057H10.367C12.5226 2.87057 12.6009 3.40948 11.3733 6.87645ZM12.6267 0.46423H4.54253L0 13.2905H8.08371C14.5199 13.2905 15.9317 10.2362 17.1213 6.87645C18.3118 3.51717 19.0634 0.46423 12.6267 0.46423Z" fill="#232323"/>
</svg>
