<svg width="92" height="32" viewBox="0 0 92 32" fill="none" xmlns="http://www.w3.org/2000/svg">
<path d="M39.8077 17.3385C39.8077 21.7053 36.4316 24.9231 32.2885 24.9231C28.1453 24.9231 24.7692 21.7053 24.7692 17.3385C24.7692 12.9409 28.1453 9.75391 32.2885 9.75391C36.4316 9.75391 39.8077 12.9409 39.8077 17.3385ZM36.5161 17.3385C36.5161 14.6097 34.5594 12.7426 32.2885 12.7426C30.0175 12.7426 28.0608 14.6097 28.0608 17.3385C28.0608 20.04 30.0175 21.9344 32.2885 21.9344C34.5594 21.9344 36.5161 20.0366 36.5161 17.3385Z" fill="#232323"/>
<path d="M55.7308 17.3385C55.7308 21.7053 52.3547 24.9231 48.2116 24.9231C44.0684 24.9231 40.6923 21.7053 40.6923 17.3385C40.6923 12.9444 44.0684 9.75391 48.2116 9.75391C52.3547 9.75391 55.7308 12.9409 55.7308 17.3385ZM52.4392 17.3385C52.4392 14.6097 50.4825 12.7426 48.2116 12.7426C45.9406 12.7426 43.9839 14.6097 43.9839 17.3385C43.9839 20.04 45.9406 21.9344 48.2116 21.9344C50.4825 21.9344 52.4392 20.0366 52.4392 17.3385Z" fill="#232323"/>
<path d="M71.6538 10.2007V23.4774C71.6538 28.9387 68.4383 31.1693 64.6368 31.1693C61.0584 31.1693 58.9047 28.772 58.0925 26.8115L60.9153 25.6346C61.4179 26.8382 62.6496 28.2586 64.6335 28.2586C67.0668 28.2586 68.5748 26.7548 68.5748 23.9241V22.8605H68.4616C67.7359 23.7574 66.3378 24.541 64.5736 24.541C60.882 24.541 57.5 21.3201 57.5 17.1758C57.5 13.0014 60.882 9.75391 64.5736 9.75391C66.3345 9.75391 67.7326 10.5374 68.4616 11.4077H68.5748V10.204H71.6538V10.2007ZM68.8044 17.1758C68.8044 14.5718 67.0702 12.668 64.8632 12.668C62.6263 12.668 60.7522 14.5718 60.7522 17.1758C60.7522 19.7531 62.6263 21.6302 64.8632 21.6302C67.0702 21.6302 68.8044 19.7531 68.8044 17.1758Z" fill="#232323"/>
<path d="M76.0769 1.72314V24.0308H73.4231V1.72314H76.0769Z" fill="#232323"/>
<path d="M89.4117 19.8382L91.8638 21.5617C91.0724 22.7962 89.1652 24.9231 85.8698 24.9231C81.7829 24.9231 78.7308 21.5925 78.7308 17.3385C78.7308 12.8281 81.8089 9.75391 85.5162 9.75391C89.2495 9.75391 91.0756 12.8862 91.6724 14.5789L92 15.4407L82.383 19.6399C83.1193 21.1616 84.2642 21.9378 85.8698 21.9378C87.4785 21.9378 88.5943 21.1035 89.4117 19.8382ZM81.864 17.1094L88.2927 14.2951C87.9391 13.3479 86.8752 12.6879 85.6233 12.6879C84.0177 12.6879 81.7829 14.1823 81.864 17.1094Z" fill="#232323"/>
<path d="M11.5108 14.6201V11.4507H21.9605C22.0627 12.0031 22.1154 12.6565 22.1154 13.3638C22.1154 15.7417 21.4794 18.6821 19.4296 20.7772C17.4359 22.8991 14.8886 24.0308 11.5141 24.0308C5.25945 24.0308 0 18.8236 0 12.4308C0 6.03801 5.25945 0.830811 11.5141 0.830811C14.9743 0.830811 17.4392 2.2185 19.2912 4.02721L17.1031 6.26368C15.775 4.99051 13.9758 4.00026 11.5108 4.00026C6.94339 4.00026 3.37119 7.76252 3.37119 12.4308C3.37119 17.0991 6.94339 20.8614 11.5108 20.8614C14.4734 20.8614 16.1606 19.6454 17.2415 18.5407C18.1181 17.6447 18.6948 16.3648 18.9222 14.6168L11.5108 14.6201Z" fill="#232323"/>
</svg>
