<svg width="50" height="50" viewBox="0 0 50 50" fill="none" xmlns="http://www.w3.org/2000/svg">
<circle cx="25" cy="25" r="25" fill="#F4F7FB"/>
<mask id="mask0_138_111" style="mask-type:alpha" maskUnits="userSpaceOnUse" x="0" y="0" width="50" height="50">
<circle cx="25" cy="25" r="25" fill="white"/>
</mask>
<g mask="url(#mask0_138_111)">
<path fill-rule="evenodd" clip-rule="evenodd" d="M26.4167 8.00744C26.4164 8.02011 26.3946 8.0414 26.3684 8.05474C26.3034 8.08778 26.2184 8.21308 26.2053 8.29527C26.1993 8.33243 26.181 8.38837 26.1645 8.41959C26.1308 8.48352 26.1217 8.85653 26.1497 9.02938C26.1651 9.12474 26.1638 9.12896 26.1143 9.14711C26.086 9.15746 26.0517 9.16126 26.0381 9.15557C25.995 9.13748 25.888 8.9819 25.8345 8.85944C25.7871 8.75119 25.7835 8.72493 25.7917 8.54706C25.7981 8.40822 25.7938 8.3474 25.7767 8.3337C25.7401 8.30443 25.7252 8.35872 25.714 8.5615C25.7013 8.79253 25.7367 9.10701 25.7875 9.21439C25.8318 9.30809 25.8381 9.39443 25.8032 9.42811C25.7669 9.46302 25.7441 9.45595 25.6696 9.38679C25.5575 9.2827 25.5251 9.22433 25.4687 9.0251C25.4237 8.86606 25.4151 8.79736 25.4147 8.59461C25.4143 8.39486 25.4092 8.35336 25.3852 8.35336C25.3693 8.35336 25.3429 8.37813 25.3267 8.40842C25.3104 8.4387 25.2903 8.46636 25.282 8.46992C25.2511 8.48303 25.1802 8.65601 25.1579 8.77244C25.1299 8.91842 25.149 9.28285 25.1889 9.36558C25.204 9.39685 25.226 9.48191 25.2378 9.55459C25.2496 9.62726 25.2711 9.69964 25.2856 9.71542C25.3001 9.7312 25.3249 9.79364 25.3407 9.85417C25.3691 9.96273 25.3689 9.96464 25.3238 9.99306C25.2863 10.0167 25.2657 10.0179 25.2089 9.99987C25.1708 9.98776 25.1348 9.9702 25.1288 9.96083C25.1228 9.95147 25.0842 9.9351 25.0432 9.92445C25.0021 9.9138 24.9481 9.88802 24.9231 9.86717C24.8982 9.84632 24.867 9.82925 24.854 9.82925C24.7908 9.82925 24.4524 9.49635 24.4518 9.43356C24.4516 9.41886 24.4305 9.37203 24.4048 9.32949C24.351 9.24062 24.3102 8.91717 24.3284 8.72438L24.339 8.61287L24.2887 8.62502C24.228 8.6397 24.1217 8.73844 24.094 8.80586C24.083 8.83276 24.0726 8.95027 24.0709 9.06696C24.069 9.2052 24.0596 9.28715 24.044 9.30221C24.0308 9.31491 24.0169 9.32162 24.0132 9.3171C23.9084 9.18959 23.8791 9.12584 23.8531 8.9675C23.8377 8.87429 23.8125 8.75971 23.7971 8.71287L23.7691 8.62773H23.5745C23.4054 8.62773 23.3728 8.63304 23.3265 8.66816C23.2971 8.69039 23.2421 8.7142 23.2042 8.72105C23.1663 8.7279 23.1352 8.74207 23.1352 8.75253C23.1352 8.763 23.105 8.78374 23.068 8.79861C22.9344 8.8524 22.8068 8.95013 22.5802 9.17243C22.4533 9.29699 22.3494 9.40588 22.3494 9.41443C22.3494 9.43714 22.2256 9.54524 22.1994 9.54533C22.1872 9.54539 22.1444 9.50925 22.1044 9.46501C22.0644 9.42077 22.0147 9.36632 21.994 9.34399C21.9733 9.32166 21.9508 9.26206 21.9442 9.21154C21.9375 9.16102 21.9182 9.10906 21.9012 9.09604C21.8398 9.04892 21.4739 9.07978 21.4075 9.13767C21.3903 9.1526 21.3383 9.17305 21.2917 9.18312C21.2452 9.19318 21.1923 9.21396 21.1741 9.22928C21.156 9.24459 21.1191 9.26351 21.0921 9.27131C21.065 9.27911 21.0208 9.30028 20.9938 9.31837C20.9668 9.33646 20.9226 9.35778 20.8956 9.36579C20.8686 9.37377 20.8223 9.39831 20.7928 9.4203C20.7632 9.44229 20.7132 9.47943 20.6816 9.50285C20.65 9.52628 20.61 9.54543 20.5928 9.54543C20.5755 9.54543 20.5421 9.56672 20.5186 9.59273C20.4628 9.65461 20.357 9.65832 20.3244 9.59954C20.3016 9.5585 20.3087 9.38855 20.337 9.30119C20.3514 9.25649 20.35 9.25587 20.2599 9.26775C20.2095 9.27441 20.1264 9.3013 20.0753 9.32751C20.0242 9.35369 19.968 9.37513 19.9505 9.37513C19.9329 9.37513 19.896 9.39224 19.8684 9.41315C19.8408 9.43406 19.7888 9.45676 19.7528 9.46361C19.7168 9.47046 19.6652 9.49177 19.638 9.51095C19.5612 9.56531 19.4326 9.57809 19.2355 9.55099C19.1383 9.53761 19.0384 9.51812 19.0136 9.50766C18.9422 9.47761 18.4595 9.48422 18.3286 9.51705C18.2664 9.53266 18.1833 9.54543 18.144 9.54543C18.0597 9.54543 17.6938 9.64526 17.5951 9.69521C17.5572 9.71434 17.4894 9.73593 17.4443 9.7432C17.3993 9.75044 17.3579 9.76772 17.3524 9.78157C17.3468 9.79542 17.313 9.8126 17.2771 9.81974C17.2413 9.82687 17.179 9.85323 17.1387 9.87828C17.0984 9.90335 17.0537 9.92386 17.0394 9.92386C17.0251 9.92386 16.9834 9.94515 16.9467 9.97117C16.9101 9.99718 16.8708 10.0185 16.8594 10.0186C16.848 10.0186 16.7812 10.0575 16.711 10.1049C16.6408 10.1523 16.5656 10.1991 16.544 10.2089C16.5224 10.2187 16.4649 10.2565 16.4163 10.2928C16.2872 10.3893 16.2627 10.3957 15.9883 10.4043C15.8509 10.4087 15.712 10.4223 15.6796 10.4345C15.6472 10.4468 15.5676 10.4651 15.5028 10.4752C15.4379 10.4854 15.3664 10.5052 15.3438 10.5194C15.3212 10.5336 15.2641 10.5552 15.2168 10.5675C15.1695 10.5797 15.1095 10.606 15.0833 10.6258C15.0572 10.6456 15.0205 10.6618 15.0018 10.6618C14.9831 10.6618 14.9467 10.677 14.9209 10.6955C14.8485 10.7477 14.6344 10.8699 14.6155 10.8699C14.6063 10.8699 14.5876 10.887 14.5741 10.9078C14.5606 10.9286 14.5394 10.9456 14.5268 10.9456C14.5143 10.9456 14.4901 10.9582 14.473 10.9735C14.4559 10.9888 14.3756 11.0557 14.2945 11.1221C14.1407 11.2482 13.882 11.5147 13.882 11.5472C13.882 11.5575 13.8687 11.5709 13.8525 11.5769C13.8363 11.5829 13.823 11.5995 13.823 11.6138C13.823 11.6282 13.8063 11.6545 13.7858 11.6723C13.7431 11.7095 13.6069 11.9166 13.6069 11.9443C13.6069 11.9545 13.5929 11.974 13.5758 11.9876C13.5452 12.0121 13.5017 12.0838 13.4388 12.2134C13.4211 12.2498 13.3908 12.2966 13.3714 12.3175C13.352 12.3383 13.3296 12.3851 13.3216 12.4215C13.3136 12.4579 13.2906 12.5081 13.2704 12.5329C13.2502 12.5577 13.2336 12.5919 13.2336 12.6088C13.2336 12.6258 13.2164 12.6706 13.1954 12.7084C13.1744 12.7461 13.1437 12.8273 13.1272 12.8887C13.1107 12.9501 13.0846 13.0255 13.0693 13.0562C13.054 13.087 13.0355 13.167 13.0281 13.2339C13.0208 13.3009 13.0013 13.3809 12.9848 13.4116C12.9148 13.5419 12.9138 14.8539 12.9835 15.0138C12.9994 15.0502 13.0182 15.1373 13.0253 15.2073C13.0324 15.2773 13.0557 15.3891 13.077 15.4557C13.0984 15.5224 13.1248 15.622 13.1356 15.6772C13.1465 15.7324 13.1682 15.7911 13.1838 15.8077C13.1994 15.8243 13.2184 15.876 13.2261 15.9225C13.2338 15.9691 13.2554 16.0285 13.2743 16.0545C13.2931 16.0805 13.3145 16.1354 13.3218 16.1765C13.3291 16.2176 13.352 16.2719 13.3728 16.2973C13.3935 16.3227 13.4105 16.3595 13.4105 16.3791C13.4105 16.3987 13.437 16.4626 13.4694 16.5211C13.5018 16.5796 13.5283 16.6423 13.5283 16.6603C13.5283 16.6784 13.5411 16.7034 13.5568 16.716C13.5725 16.7285 13.5958 16.7699 13.6086 16.8081C13.6215 16.8463 13.6473 16.8989 13.666 16.9249C13.6847 16.9509 13.7066 16.9935 13.7147 17.0195C13.7227 17.0455 13.7453 17.0838 13.7649 17.1046C13.7845 17.1255 13.8065 17.1659 13.8139 17.1945C13.8213 17.2231 13.8356 17.2466 13.8458 17.2466C13.856 17.2466 13.8766 17.2749 13.8916 17.3096C13.9067 17.3442 13.9318 17.3828 13.9475 17.3953C13.9631 17.4079 13.9872 17.4455 14.001 17.479C14.0147 17.5124 14.0392 17.5548 14.0554 17.5731C14.0715 17.5914 14.0944 17.6218 14.1061 17.6408C14.1489 17.7098 14.214 17.8052 14.2318 17.8249C14.2418 17.8359 14.2602 17.8634 14.2727 17.8859C14.2852 17.9085 14.3151 17.9473 14.3392 17.9722C14.3632 17.9971 14.405 18.0486 14.432 18.0865C14.4591 18.1245 14.5062 18.1815 14.5367 18.2133C14.569 18.2469 14.5875 18.2831 14.5809 18.2996C14.5747 18.3153 14.5696 18.3403 14.5696 18.355C14.5696 18.3698 14.5541 18.3969 14.5352 18.4153C14.4741 18.4746 14.3784 18.6204 14.2774 18.8076C14.2549 18.8492 14.2286 18.8961 14.2188 18.9117C14.209 18.9273 14.1868 18.9698 14.1693 19.0063C14.1519 19.0427 14.1301 19.0853 14.1211 19.1009C14.0797 19.1718 14.0003 19.3419 13.9885 19.3847C13.9814 19.4107 13.9648 19.4448 13.9516 19.4604C13.9385 19.476 13.9159 19.5186 13.9015 19.555C13.8871 19.5914 13.8665 19.6324 13.8556 19.6461C13.8447 19.6598 13.8207 19.7108 13.8023 19.7596C13.7566 19.8806 13.6896 20.0402 13.6444 20.1358C13.6238 20.1795 13.6069 20.2263 13.6068 20.2399C13.6068 20.2535 13.5891 20.2924 13.5675 20.3265C13.546 20.3606 13.5283 20.4013 13.5283 20.417C13.5283 20.4327 13.507 20.4862 13.4808 20.5359C13.4547 20.5855 13.427 20.6598 13.4192 20.7008C13.4115 20.7419 13.3894 20.8056 13.3701 20.8426C13.3509 20.8795 13.3288 20.9433 13.3211 20.9845C13.3133 21.0256 13.2939 21.0842 13.2779 21.1146C13.2619 21.145 13.241 21.2294 13.2315 21.3022C13.222 21.375 13.2023 21.4523 13.1876 21.4739C13.173 21.4956 13.1498 21.5602 13.1362 21.6175C13.1225 21.6747 13.099 21.7405 13.084 21.7636C13.0689 21.7867 13.0467 21.8506 13.0344 21.9055C13.0222 21.9604 12.9958 22.035 12.9756 22.0713C12.9554 22.1076 12.9389 22.157 12.9389 22.1811C12.9389 22.2053 12.9222 22.2608 12.9019 22.3044C12.8406 22.4354 12.7494 22.6638 12.7341 22.7244C12.7262 22.7556 12.7072 22.7946 12.6919 22.811C12.6765 22.8274 12.6562 22.8809 12.6467 22.9299C12.6372 22.9789 12.6161 23.0336 12.5997 23.0515C12.5834 23.0693 12.5636 23.1137 12.5556 23.1501C12.5476 23.1865 12.5246 23.2389 12.5043 23.2666C12.484 23.2942 12.4674 23.3281 12.4674 23.342C12.4674 23.3558 12.446 23.4099 12.4198 23.4621C12.3936 23.5143 12.3671 23.5798 12.3608 23.6076C12.3546 23.6355 12.337 23.6705 12.3216 23.6852C12.3063 23.7 12.2833 23.7495 12.2706 23.7954C12.2579 23.8411 12.2403 23.8871 12.2315 23.8975C12.1989 23.9361 12.0745 24.1782 12.0745 24.203C12.0745 24.2171 12.0568 24.2457 12.0352 24.2665C12.0136 24.2873 11.9959 24.3158 11.9959 24.3299C11.9959 24.3439 11.9696 24.3929 11.9374 24.4387C11.9051 24.4845 11.8786 24.5355 11.8784 24.5521C11.8782 24.5687 11.8604 24.6317 11.8388 24.6922C11.7895 24.8301 11.7895 24.8844 11.8383 24.9882C11.8597 25.0335 11.8774 25.0892 11.8776 25.1118C11.8779 25.1344 11.9002 25.1782 11.9272 25.2091C11.9542 25.2401 11.9763 25.2735 11.9763 25.2835C11.9763 25.3006 12.0369 25.3709 12.1436 25.4775C12.1859 25.5198 12.2657 25.5811 12.5144 25.7624C12.5564 25.793 12.5996 25.8181 12.6105 25.8181C12.6384 25.8181 12.8407 25.9494 12.8407 25.9674C12.8407 25.9756 12.8628 25.992 12.8898 26.0039C12.9168 26.0157 12.9389 26.0344 12.9389 26.0454C12.9389 26.0564 12.978 26.1047 13.0258 26.1527C13.0977 26.225 13.1409 26.29 13.2084 26.4271C13.2119 26.4343 13.1736 26.4705 13.1232 26.5075C13.0335 26.5735 13.0277 26.5749 12.8508 26.5749C12.7261 26.5749 12.6371 26.5641 12.5638 26.5399C12.4156 26.4909 12.278 26.473 12.2604 26.5004C12.2412 26.5304 12.4644 26.7263 12.5178 26.7263C12.5303 26.7263 12.5709 26.7462 12.608 26.7704C12.6451 26.7946 12.7191 26.8251 12.7725 26.838C12.8259 26.851 12.8805 26.8702 12.8938 26.8808C12.907 26.8914 13.0114 26.9111 13.1258 26.9246C13.3517 26.9512 13.398 26.974 13.4175 27.0679C13.4239 27.0986 13.446 27.1599 13.4666 27.2041C13.4872 27.2483 13.5107 27.3058 13.519 27.3318C13.5345 27.3808 13.6288 27.4997 13.7395 27.6097C13.7752 27.6451 13.8034 27.6929 13.8034 27.7182C13.8034 27.7623 13.6799 27.9595 13.6445 27.972C13.6346 27.9755 13.6266 27.9897 13.6266 28.0037C13.6266 28.0176 13.605 28.0537 13.5787 28.0838C13.5524 28.1139 13.5245 28.1629 13.5168 28.1928C13.509 28.2226 13.4841 28.275 13.4615 28.3092C13.3498 28.4781 13.3327 28.5097 13.321 28.57C13.314 28.6057 13.2915 28.6496 13.271 28.6675C13.2504 28.6854 13.2336 28.7109 13.2336 28.7242C13.2336 28.7374 13.185 28.84 13.1256 28.9522C13.0662 29.0643 13.0175 29.1679 13.0175 29.1823C13.0175 29.1967 12.9999 29.2302 12.9782 29.2567C12.9566 29.2831 12.9389 29.3169 12.9389 29.3318C12.9389 29.3466 12.9154 29.4068 12.8865 29.4656C12.8473 29.5454 12.8328 29.607 12.8293 29.7096C12.8243 29.8545 12.8067 29.9588 12.7821 29.9903C12.7739 30.0007 12.756 30.0561 12.7422 30.1133C12.7284 30.1705 12.7007 30.2377 12.6807 30.2625C12.6606 30.2873 12.6443 30.3223 12.6443 30.3404C12.6443 30.3584 12.6278 30.3934 12.6077 30.4182C12.5875 30.4431 12.5644 30.484 12.5562 30.5092C12.548 30.5343 12.5092 30.6014 12.47 30.6582C12.4308 30.715 12.3895 30.7765 12.3783 30.7948C12.367 30.8132 12.3449 30.8431 12.3292 30.8612C12.2993 30.8955 12.2434 30.993 12.175 31.1303C12.1529 31.1746 12.1259 31.2108 12.1149 31.2108C12.1039 31.2108 12.0891 31.2342 12.0821 31.2628C12.075 31.2914 12.055 31.3306 12.0375 31.3498C12.0077 31.3827 11.9857 31.4197 11.8879 31.6014C11.8663 31.6415 11.8376 31.6856 11.8241 31.6993C11.8106 31.7131 11.7951 31.7471 11.7896 31.775C11.7841 31.8029 11.7608 31.9009 11.7377 31.9928C11.6908 32.1795 11.6955 32.3775 11.7498 32.5027C11.7663 32.5407 11.78 32.5913 11.7801 32.6151C11.7803 32.6388 11.7933 32.6796 11.8089 32.7056C11.8246 32.7316 11.8549 32.7885 11.8762 32.8321C11.9198 32.9215 11.9314 32.9353 12.0951 33.0935C12.2481 33.2413 12.3312 33.3111 12.3545 33.3111C12.3649 33.3111 12.3996 33.3324 12.4317 33.3584C12.4638 33.3844 12.5054 33.4057 12.5241 33.4057C12.5427 33.4057 12.588 33.427 12.6246 33.453C12.6612 33.479 12.7059 33.5003 12.724 33.5003C12.7421 33.5003 12.7779 33.5161 12.8037 33.5355C12.8295 33.5548 12.8947 33.5769 12.9488 33.5846C13.0028 33.5922 13.0868 33.616 13.1354 33.6373C13.184 33.6587 13.2769 33.6817 13.3417 33.6885C13.4065 33.6953 13.4773 33.7101 13.4989 33.7214C13.5205 33.7328 13.5878 33.7519 13.6485 33.7639C13.7408 33.7822 13.7692 33.7981 13.8221 33.8615C13.8814 33.9326 13.8835 33.9399 13.8554 33.9812C13.8355 34.0105 13.8184 34.1157 13.804 34.2972C13.7922 34.4469 13.7741 34.6332 13.7638 34.7113C13.7534 34.7893 13.7426 35.0959 13.7398 35.3925L13.7346 35.9317L13.7841 35.9979C13.8965 36.1481 14.0007 36.2221 14.2938 36.3595C14.342 36.3821 14.3935 36.4122 14.4081 36.4264C14.4228 36.4405 14.4594 36.4521 14.4895 36.4521C14.5195 36.4521 14.5856 36.4734 14.6364 36.4994C14.6873 36.5254 14.747 36.5467 14.7693 36.5467C14.7916 36.5467 14.8419 36.5634 14.8812 36.5838C14.9205 36.6042 14.9903 36.6301 15.0362 36.6413C15.1384 36.6662 15.1497 36.72 15.0617 36.7638C14.8199 36.8842 14.6096 37.0944 14.5675 37.2577C14.5543 37.3089 14.5304 37.3704 14.5144 37.3942C14.4965 37.421 14.4818 37.5052 14.4758 37.6156C14.4674 37.7702 14.4728 37.8142 14.5169 37.9507C14.5448 38.037 14.5769 38.1425 14.5882 38.1851C14.5995 38.2277 14.6264 38.278 14.6481 38.2969C14.6697 38.3157 14.6874 38.338 14.6874 38.3463C14.6874 38.3546 14.7102 38.3852 14.7379 38.4143C14.8367 38.5178 14.8446 38.5273 14.8446 38.5427C14.8446 38.5513 14.8658 38.5851 14.8918 38.6178C14.9177 38.6506 14.9504 38.7153 14.9643 38.7615C14.9783 38.8078 15.0016 38.8638 15.016 38.8859C15.0305 38.9079 15.0475 38.9718 15.0539 39.0278C15.0602 39.0837 15.0774 39.148 15.0921 39.1707C15.1277 39.2258 15.178 39.7247 15.1834 40.0765C15.1858 40.2321 15.1761 40.5192 15.1618 40.7146C15.1336 41.1027 15.1389 41.1723 15.2097 41.3466C15.2358 41.4108 15.2572 41.48 15.2572 41.5003C15.2572 41.5207 15.27 41.5476 15.2856 41.5601C15.3013 41.5726 15.3248 41.6141 15.3379 41.6523C15.3509 41.6905 15.3765 41.743 15.3947 41.7691C15.413 41.7951 15.4531 41.8547 15.4839 41.9015C15.5499 42.0017 15.5645 42.0182 15.7524 42.2044C15.9619 42.4121 16.1584 42.5461 16.4212 42.6606C16.4725 42.683 16.5145 42.7076 16.5145 42.7154C16.5145 42.7232 16.5565 42.7397 16.6078 42.7522C16.6592 42.7646 16.7156 42.7873 16.7332 42.8026C16.7509 42.818 16.8256 42.8395 16.8993 42.8506C16.973 42.8616 17.0555 42.8846 17.0827 42.9017C17.1253 42.9285 17.1959 42.9324 17.5945 42.9299C17.8916 42.9282 18.1445 42.9161 18.3023 42.8963C18.4374 42.8793 18.7778 42.857 19.0587 42.8466C19.3396 42.8362 19.6004 42.819 19.6382 42.8084C19.6761 42.7979 19.8231 42.7841 19.965 42.7779L20.223 42.7664L20.2586 42.8188C20.2783 42.8478 20.2978 42.9187 20.3022 42.9777C20.3127 43.117 20.2798 43.1476 20.0957 43.1699C20.0214 43.1788 19.9362 43.1951 19.9063 43.2061C19.8765 43.217 19.7664 43.2357 19.6617 43.2476C19.557 43.2595 19.4521 43.2813 19.4286 43.2961C19.4051 43.311 19.3255 43.3311 19.2518 43.341C19.178 43.3508 19.0762 43.3758 19.0256 43.3965C18.975 43.4172 18.9142 43.4342 18.8905 43.4342C18.8192 43.4342 18.4316 43.5499 18.4082 43.5782C18.3962 43.5926 18.3805 43.6045 18.3734 43.6045C18.357 43.6045 18.1704 43.7249 18.1091 43.7751C18.0839 43.7957 18.0474 43.8126 18.028 43.8126C18.0086 43.8126 17.9817 43.8255 17.9681 43.8412C17.9546 43.8569 17.9071 43.8868 17.8626 43.9075C17.8181 43.9283 17.7242 43.9791 17.654 44.0205C17.5838 44.0618 17.5113 44.0959 17.4931 44.0961C17.4748 44.0963 17.4539 44.1056 17.4467 44.1169C17.4395 44.1282 17.3957 44.153 17.3495 44.1721C17.3032 44.1912 17.2599 44.2154 17.2531 44.2259C17.2464 44.2365 17.2079 44.2552 17.1675 44.2677C17.1271 44.2801 17.0764 44.3054 17.0548 44.3238C17.0332 44.3422 16.9868 44.3631 16.9518 44.3702C16.9167 44.3774 16.8807 44.3959 16.8717 44.4114C16.8627 44.4269 16.8164 44.448 16.7689 44.4583C16.7214 44.4686 16.6778 44.4834 16.6722 44.4912C16.6574 44.5116 16.1803 44.7398 16.1524 44.7398C16.1315 44.7398 15.9355 44.8317 15.8073 44.9016C15.7803 44.9164 15.7439 44.9286 15.7264 44.9287C15.709 44.9289 15.6736 44.9447 15.6478 44.964C15.6221 44.9832 15.5752 45.005 15.5436 45.0124C15.512 45.0198 15.4644 45.0424 15.4378 45.0626C15.4112 45.0828 15.3751 45.0993 15.3577 45.0993C15.3402 45.0993 15.2773 45.1245 15.2179 45.1553C15.1585 45.1861 15.0935 45.2116 15.0736 45.2121C15.0537 45.2125 15.015 45.2298 14.9875 45.2507C14.96 45.2715 14.9223 45.2885 14.9036 45.2885C14.8848 45.2885 14.8477 45.3051 14.821 45.3253C14.7943 45.3455 14.7312 45.3721 14.6808 45.3843C14.6304 45.3965 14.5892 45.4138 14.5892 45.4227C14.5892 45.4315 14.5413 45.4522 14.4828 45.4686C14.4243 45.485 14.3659 45.5105 14.3531 45.5254C14.3403 45.5402 14.2976 45.5577 14.2582 45.5641C14.2187 45.5706 14.1631 45.5917 14.1344 45.6111C14.1058 45.6305 14.0572 45.6524 14.0264 45.6598C13.9956 45.6672 13.9315 45.6931 13.8839 45.7174C13.8364 45.7417 13.7824 45.7615 13.7638 45.7615C13.7453 45.7615 13.709 45.7775 13.6832 45.7969C13.6575 45.8164 13.6054 45.8388 13.5676 45.8467C13.5298 45.8546 13.4778 45.877 13.452 45.8964C13.4262 45.9159 13.39 45.9318 13.3714 45.9318C13.3529 45.9318 13.2988 45.9517 13.2513 45.976C13.2038 46.0003 13.1384 46.0265 13.1059 46.0342C13.0735 46.042 13.0337 46.0596 13.0175 46.0735C13.0013 46.0873 12.9483 46.1087 12.8997 46.1211C12.851 46.1334 12.798 46.1544 12.7818 46.1677C12.7656 46.1811 12.7172 46.2028 12.6742 46.2161C12.6312 46.2295 12.5693 46.256 12.5367 46.2752C12.504 46.2944 12.4586 46.3102 12.4357 46.3102C12.4129 46.3102 12.3731 46.3262 12.3473 46.3457C12.3215 46.3651 12.2699 46.3875 12.2325 46.3953C12.1951 46.4032 12.142 46.4248 12.1146 46.4433C12.0872 46.4619 12.0298 46.4828 11.9872 46.4898C11.9445 46.4968 11.8881 46.5189 11.8617 46.5389C11.8354 46.5588 11.7995 46.5752 11.7821 46.5752C11.7646 46.5753 11.6973 46.6008 11.6325 46.6319C11.5677 46.6631 11.5005 46.6886 11.4832 46.6886C11.466 46.6887 11.4328 46.7047 11.4094 46.7241C11.3861 46.7437 11.3339 46.7648 11.2935 46.7712C11.253 46.7777 11.1764 46.8043 11.1233 46.8304C11.0701 46.8565 11.014 46.8779 10.9986 46.8779C10.9832 46.8779 10.9471 46.8939 10.9184 46.9134C10.8897 46.9329 10.8353 46.9552 10.7975 46.9628C10.7597 46.9705 10.7136 46.9896 10.6951 47.0053C10.6766 47.0211 10.6198 47.0414 10.5689 47.0506C10.518 47.0597 10.4624 47.0793 10.4454 47.0941C10.4284 47.1089 10.3879 47.1273 10.3555 47.135C10.3231 47.1428 10.2577 47.169 10.2101 47.1933C10.1626 47.2176 10.1122 47.2374 10.0982 47.2374C10.0842 47.2374 10.0311 47.2587 9.98033 47.2847C9.92953 47.3108 9.87206 47.332 9.85263 47.332C9.8332 47.332 9.77574 47.3533 9.72493 47.3793C9.67413 47.4054 9.61816 47.4267 9.60058 47.4267C9.58297 47.4267 9.54824 47.4404 9.52339 47.4571C9.49853 47.4739 9.4338 47.4989 9.37952 47.5127C9.32524 47.5265 9.26555 47.5511 9.24689 47.5674C9.2282 47.5836 9.1905 47.5969 9.1631 47.5969C9.13569 47.5969 9.09141 47.6135 9.06469 47.6337C9.03799 47.654 8.97271 47.6808 8.91962 47.6934C8.86654 47.7061 8.80542 47.728 8.78381 47.7423C8.7622 47.7565 8.70916 47.7773 8.66593 47.7884C8.62271 47.7995 8.57342 47.8206 8.55639 47.8352C8.53936 47.8498 8.48378 47.8692 8.43289 47.8784C8.38199 47.8876 8.32521 47.9079 8.30669 47.9236C8.28816 47.9394 8.24282 47.9584 8.20594 47.966C8.16905 47.9736 8.09921 48.0001 8.05076 48.0249C8.00229 48.0497 7.94306 48.07 7.91911 48.07C7.89516 48.07 7.85402 48.0863 7.82768 48.1063C7.80133 48.1262 7.74489 48.1483 7.70224 48.1553C7.65959 48.1624 7.60224 48.1833 7.57479 48.2018C7.54737 48.2204 7.49432 48.242 7.45692 48.2498C7.41953 48.2577 7.36916 48.2791 7.34497 48.2973C7.32079 48.3156 7.26173 48.3362 7.21374 48.3431C7.16574 48.3501 7.10551 48.3716 7.07985 48.3911C7.05421 48.4105 6.99834 48.4325 6.95569 48.44C6.91304 48.4475 6.85469 48.4695 6.826 48.4889C6.79732 48.5083 6.75754 48.5242 6.7376 48.5242C6.71766 48.5243 6.67481 48.5382 6.64239 48.5551C6.58579 48.5846 6.45049 48.6364 6.22 48.7169C6.16057 48.7377 6.10311 48.7614 6.0923 48.7696C6.0815 48.7779 6.04171 48.7908 6.0039 48.7983C5.96608 48.8059 5.90861 48.8272 5.8762 48.8458C5.84378 48.8643 5.78706 48.8857 5.75019 48.8932C5.71329 48.9008 5.64345 48.9272 5.595 48.952C5.54654 48.9768 5.49261 48.9972 5.47514 48.9972C5.4577 48.9972 5.41259 49.013 5.37493 49.0325C5.33727 49.0519 5.27552 49.0742 5.2377 49.0821C5.19988 49.09 5.12923 49.1166 5.08069 49.1414C5.03214 49.1661 4.98244 49.1864 4.97022 49.1864C4.958 49.1864 4.90932 49.2024 4.86201 49.2221C4.81472 49.2418 4.73339 49.2637 4.68129 49.2708C4.62905 49.2779 4.56956 49.3001 4.54867 49.3202C4.52785 49.3402 4.49357 49.3567 4.47253 49.3567C4.45147 49.3567 4.41039 49.3779 4.38123 49.404C4.3521 49.43 4.31848 49.4514 4.30656 49.4516C4.27943 49.452 4.12599 49.5494 4.05403 49.6119C4.00269 49.6565 4 49.6673 4 49.8294V50H26.0164C48.0316 50 48.0329 50 47.9973 49.9622C47.9778 49.9413 47.9461 49.9243 47.927 49.9243C47.9079 49.9243 47.8673 49.9048 47.8367 49.881C47.8062 49.8572 47.7591 49.8269 47.7321 49.8137C47.7051 49.8005 47.6388 49.7651 47.5847 49.735C47.5307 49.7049 47.4489 49.6631 47.403 49.6421C47.3571 49.6211 47.3195 49.5959 47.3195 49.5859C47.3195 49.5759 47.2941 49.5624 47.263 49.5559C47.2319 49.5493 47.1772 49.5231 47.1413 49.4976C47.1055 49.4721 47.0681 49.4513 47.0582 49.4513C47.0484 49.4513 47.0141 49.43 46.982 49.404C46.9499 49.3779 46.9122 49.3567 46.8983 49.3567C46.8844 49.3567 46.8519 49.3408 46.8261 49.3214C46.8003 49.302 46.7584 49.2799 46.733 49.2722C46.7076 49.2646 46.657 49.24 46.6206 49.2176C46.4568 49.1169 46.4154 49.0942 46.3728 49.0817C46.3478 49.0744 46.3136 49.0568 46.2968 49.0425C46.2672 49.0177 46.1556 48.9538 46.0327 48.8916C46.0003 48.8752 45.9296 48.8373 45.8755 48.8073C45.8215 48.7774 45.7477 48.7392 45.7115 48.7226C45.6752 48.7059 45.6272 48.6757 45.6046 48.6555C45.5821 48.6353 45.5541 48.6187 45.5424 48.6187C45.5307 48.6187 45.4887 48.5974 45.4489 48.5714C45.4092 48.5454 45.364 48.5241 45.3485 48.5241C45.3331 48.5241 45.3088 48.5106 45.2946 48.4941C45.2804 48.4776 45.2351 48.4511 45.194 48.4353C45.1528 48.4194 45.1192 48.3995 45.1192 48.3911C45.1192 48.3826 45.0891 48.3661 45.0523 48.3544C45.0155 48.3427 44.962 48.3123 44.9334 48.2867C44.9048 48.2612 44.8655 48.2403 44.8461 48.2403C44.8268 48.2403 44.7949 48.2233 44.7754 48.2024C44.7558 48.1816 44.7235 48.1646 44.7036 48.1646C44.6836 48.1646 44.6511 48.1497 44.6313 48.1315C44.5909 48.0943 44.4848 48.0346 44.3534 47.975C44.305 47.9531 44.2607 47.9281 44.2551 47.9195C44.2495 47.911 44.214 47.8898 44.1762 47.8724C44.0806 47.8286 43.9855 47.7765 43.9515 47.7493C43.9224 47.7261 43.8327 47.6778 43.6555 47.5901C43.6015 47.5634 43.509 47.5114 43.4499 47.4746C43.3908 47.4378 43.3326 47.4077 43.3204 47.4077C43.3082 47.4077 43.2822 47.3907 43.2626 47.3699C43.2431 47.3491 43.2119 47.332 43.1935 47.332C43.175 47.332 43.1375 47.3151 43.1103 47.2945C43.083 47.2738 43 47.2261 42.9259 47.1885C42.8518 47.1508 42.7778 47.109 42.7616 47.0955C42.7454 47.082 42.699 47.0577 42.6585 47.0416C42.618 47.0255 42.5848 47.004 42.5848 46.9939C42.5848 46.9838 42.5579 46.9698 42.525 46.9629C42.4921 46.9559 42.4501 46.9354 42.4317 46.9174C42.4133 46.8993 42.3672 46.8729 42.3294 46.8588C42.2916 46.8447 42.2396 46.8177 42.2138 46.7988C42.188 46.7799 42.1578 46.7644 42.1466 46.7644C42.1354 46.7644 42.1107 46.7508 42.0917 46.7342C42.0544 46.7018 41.9745 46.6566 41.8458 46.5952C41.8013 46.574 41.7543 46.5444 41.7413 46.5293C41.7283 46.5142 41.6924 46.4966 41.6615 46.49C41.6305 46.4835 41.5943 46.4654 41.5809 46.4499C41.5675 46.4343 41.5293 46.4089 41.496 46.3935C41.4628 46.378 41.3913 46.3406 41.3373 46.3104C41.2833 46.2802 41.2015 46.2383 41.1556 46.2173C41.1096 46.1963 41.0721 46.171 41.0721 46.1611C41.0721 46.1511 41.0475 46.1378 41.0174 46.1314C40.9873 46.125 40.9373 46.0988 40.9063 46.0731C40.8752 46.0475 40.8397 46.0264 40.8273 46.0264C40.8148 46.0264 40.7747 46.0052 40.7381 45.9791C40.7015 45.9531 40.6566 45.9318 40.6385 45.9318C40.6203 45.9318 40.5938 45.9183 40.5795 45.9018C40.5653 45.8853 40.5207 45.8591 40.4804 45.8436C40.4401 45.8281 40.4023 45.8033 40.3964 45.7884C40.3905 45.7737 40.369 45.7615 40.3485 45.7615C40.328 45.7615 40.2779 45.736 40.2371 45.7048C40.1963 45.6736 40.147 45.648 40.1275 45.648C40.108 45.648 40.0868 45.6397 40.0802 45.6295C40.0626 45.6021 39.8733 45.4871 39.8 45.4594C39.7649 45.4462 39.7361 45.4285 39.7361 45.4201C39.7361 45.4118 39.7071 45.3957 39.6716 45.3845C39.6362 45.3732 39.5921 45.347 39.5736 45.3262C39.5552 45.3055 39.5237 45.2885 39.5036 45.2885C39.4836 45.2885 39.4512 45.2715 39.4316 45.2507C39.4121 45.2298 39.3864 45.2128 39.3746 45.2127C39.3627 45.2126 39.3265 45.1987 39.2941 45.1816C39.2617 45.1646 39.1932 45.1306 39.1419 45.106C39.0905 45.0815 39.0485 45.0539 39.0485 45.0447C39.0485 45.0356 39.01 45.0187 38.9629 45.0073C38.9158 44.9959 38.866 44.9736 38.8524 44.9578C38.8388 44.9419 38.8167 44.929 38.8033 44.929C38.7899 44.929 38.7464 44.9077 38.7066 44.8817C38.6668 44.8557 38.6226 44.8344 38.6084 44.8344C38.5941 44.8344 38.5499 44.8131 38.5101 44.7871C38.4703 44.7611 38.4271 44.7396 38.4141 44.7394C38.4011 44.7392 38.3329 44.7054 38.2627 44.6642C38.1925 44.6231 38.0897 44.5689 38.0344 44.5437C37.979 44.5186 37.9277 44.4885 37.9202 44.477C37.9128 44.4654 37.891 44.4559 37.8717 44.4559C37.8524 44.4559 37.8206 44.4389 37.801 44.4181C37.7815 44.3973 37.7555 44.3803 37.7433 44.3803C37.7241 44.3803 37.5444 44.2782 37.4865 44.2344C37.357 44.1366 37.2687 44.0669 37.2606 44.0561C37.2552 44.0489 37.2261 44.0145 37.1961 43.9798C37.1251 43.8978 37.0446 43.7781 37.0446 43.7546C37.0446 43.7445 37.0181 43.6883 36.9857 43.6298C36.9533 43.5713 36.9266 43.5097 36.9263 43.493C36.9261 43.4763 36.9086 43.4413 36.8875 43.4152C36.8663 43.3892 36.8488 43.3527 36.8486 43.334C36.8484 43.3153 36.8261 43.26 36.7991 43.2111C36.7721 43.1622 36.7499 43.1094 36.7499 43.0937C36.7498 43.078 36.7335 43.0394 36.7136 43.008C36.6936 42.9765 36.666 42.9169 36.6522 42.8755C36.6384 42.8341 36.6156 42.7875 36.6016 42.7719C36.5876 42.7563 36.5656 42.7033 36.5528 42.6542C36.54 42.6051 36.5173 42.5551 36.5023 42.5432C36.4874 42.5313 36.4655 42.4863 36.4536 42.4433C36.4417 42.4003 36.42 42.3522 36.4054 42.3364C36.3908 42.3206 36.3695 42.2673 36.358 42.2178C36.3465 42.1683 36.3194 42.0962 36.2979 42.0575C36.2764 42.0189 36.2588 41.9711 36.2588 41.9513C36.2588 41.9316 36.2419 41.8889 36.2212 41.8564C36.2005 41.824 36.1773 41.7634 36.1696 41.7218C36.162 41.6801 36.1402 41.6205 36.1212 41.5893C36.1022 41.5581 36.0804 41.49 36.0728 41.4379C36.0651 41.3859 36.0429 41.3178 36.0234 41.2866C36.0039 41.2553 35.9817 41.1915 35.974 41.1446C35.9664 41.0978 35.9437 41.0229 35.9236 40.9783C35.9035 40.9336 35.8812 40.8655 35.8742 40.8269C35.8672 40.7883 35.8498 40.7388 35.8356 40.7169C35.8214 40.695 35.7968 40.6168 35.781 40.5433C35.7652 40.4697 35.738 40.3899 35.7207 40.366C35.7033 40.3421 35.6891 40.2987 35.6891 40.2695C35.6891 40.2402 35.667 40.1658 35.6399 40.104C35.6129 40.0421 35.5908 39.9635 35.5908 39.9292C35.5908 39.8949 35.5744 39.8372 35.5542 39.8009C35.534 39.7647 35.5075 39.69 35.4953 39.6351C35.4831 39.5802 35.4605 39.5163 35.445 39.4932C35.4295 39.4701 35.4066 39.3958 35.3941 39.3282C35.3815 39.2605 35.3626 39.1951 35.352 39.1828C35.3414 39.1705 35.3196 39.0817 35.3036 38.9857C35.2875 38.8896 35.2648 38.7938 35.2531 38.7727C35.2414 38.7517 35.224 38.636 35.2145 38.5157C35.2049 38.3954 35.1884 38.2373 35.1777 38.1645C35.1369 37.886 35.1214 37.6128 35.109 36.9537C35.1003 36.492 35.0841 36.1643 35.0586 35.9373C35.0119 35.5199 35.0083 34.8219 35.0514 34.5126C35.0673 34.3981 35.0943 34.147 35.1113 33.9544C35.1283 33.762 35.15 33.5955 35.1594 33.5845C35.1689 33.5735 35.1872 33.5011 35.2001 33.4236C35.213 33.3461 35.2386 33.2529 35.257 33.2165C35.2755 33.18 35.2963 33.1083 35.3033 33.057C35.3103 33.0057 35.3282 32.9504 35.3431 32.934C35.358 32.9176 35.3846 32.8557 35.4022 32.7964C35.4198 32.7371 35.4423 32.6837 35.4523 32.6778C35.4622 32.6719 35.4845 32.6204 35.5017 32.5633C35.5189 32.5063 35.5412 32.4596 35.5512 32.4596C35.5612 32.4596 35.5755 32.4277 35.5829 32.3886C35.5902 32.3496 35.6115 32.2879 35.63 32.2515C35.6995 32.1149 35.7857 31.9361 35.8261 31.8446C35.849 31.7926 35.8953 31.6947 35.9288 31.627C35.9624 31.5594 36.012 31.4572 36.0391 31.4C36.0662 31.3427 36.096 31.2831 36.1052 31.2675C36.1145 31.2519 36.1354 31.2093 36.1516 31.1729C36.1679 31.1365 36.19 31.0939 36.2007 31.0783C36.2115 31.0627 36.2336 31.0201 36.2498 30.9837C36.2661 30.9473 36.2882 30.9047 36.299 30.8891C36.3097 30.8735 36.3318 30.8309 36.3481 30.7945C36.3643 30.7581 36.3863 30.7155 36.3969 30.6999C36.4076 30.6843 36.4258 30.6502 36.4375 30.6242C36.4492 30.5982 36.4709 30.5556 36.4858 30.5296C36.5008 30.5036 36.523 30.461 36.5352 30.435C36.5474 30.409 36.578 30.3451 36.6032 30.2931C36.6284 30.241 36.6552 30.1743 36.6627 30.1449C36.6703 30.1154 36.6883 30.0869 36.7028 30.0816C36.7174 30.0762 36.7348 30.0431 36.7416 30.0081C36.7485 29.973 36.7666 29.9343 36.7819 29.9221C36.7972 29.9099 36.8193 29.8633 36.831 29.8185C36.8427 29.7738 36.869 29.7226 36.8895 29.7047C36.91 29.6868 36.9268 29.6587 36.9268 29.6421C36.9269 29.6255 36.9534 29.5608 36.9857 29.4983C37.018 29.4359 37.0445 29.3688 37.0446 29.3492C37.0446 29.3296 37.0616 29.2871 37.0822 29.2546C37.1029 29.2221 37.1294 29.1455 37.141 29.0842C37.1527 29.0229 37.1703 28.9633 37.1802 28.9518C37.1902 28.9402 37.2123 28.8785 37.2294 28.8148C37.2466 28.751 37.2738 28.6744 37.29 28.6445C37.3062 28.6146 37.3195 28.5582 37.3196 28.5191C37.3196 28.4752 37.3337 28.4347 37.3564 28.4128C37.3782 28.3918 37.3985 28.3357 37.4065 28.2744C37.4138 28.2177 37.4336 28.1463 37.4504 28.1158C37.4672 28.0853 37.4983 28.0009 37.5195 27.9283C37.5407 27.8556 37.5662 27.7867 37.5762 27.7751C37.5862 27.7635 37.6021 27.7002 37.6114 27.6345C37.621 27.5669 37.6411 27.5061 37.6577 27.4944C37.6738 27.483 37.6936 27.4312 37.7017 27.3791C37.7097 27.3271 37.7334 27.2483 37.7542 27.2041C37.7751 27.1599 37.7975 27.096 37.8041 27.0622C37.8106 27.0283 37.8316 26.9751 37.8506 26.9439C37.8696 26.9127 37.8916 26.8574 37.8995 26.8209C37.9074 26.7845 37.9293 26.7249 37.9481 26.6885C37.9669 26.6521 37.9882 26.5912 37.9953 26.5532C38.0025 26.5152 38.0209 26.4741 38.0362 26.4619C38.0515 26.4496 38.074 26.3934 38.0862 26.337C38.0984 26.2805 38.122 26.2212 38.1387 26.2051C38.1554 26.1891 38.1774 26.1402 38.1875 26.0966C38.1977 26.053 38.2177 26.0044 38.232 25.9887C38.2463 25.9729 38.2642 25.9387 38.2718 25.9127C38.2794 25.8867 38.3458 25.7462 38.4195 25.6005C38.4932 25.4548 38.5589 25.3063 38.5655 25.2706C38.5721 25.2349 38.5904 25.1919 38.6062 25.1751C38.6219 25.1583 38.6483 25.0829 38.6648 25.0076C38.6812 24.9322 38.707 24.8474 38.722 24.8192C38.737 24.791 38.7555 24.7211 38.7631 24.6639C38.7707 24.6066 38.7932 24.5044 38.8131 24.4368C38.833 24.3692 38.8546 24.2481 38.8612 24.1677C38.8679 24.0874 38.8862 23.9809 38.902 23.9312C38.9178 23.8815 38.94 23.713 38.9513 23.5569C38.9627 23.4008 38.9808 23.2007 38.9916 23.1123C39.0306 22.7922 39.0463 22.5424 39.0681 21.8931C39.0805 21.5242 39.0991 21.2162 39.1104 21.196C39.1336 21.1541 39.1269 21.0614 39.0696 20.6364C39.0467 20.4662 39.0151 20.3032 38.9994 20.2741C38.9838 20.2449 38.9616 20.1808 38.9501 20.1315C38.9387 20.0821 38.9119 20.0205 38.8907 19.9945C38.8694 19.9685 38.8521 19.932 38.8521 19.9133C38.8521 19.8946 38.8366 19.8645 38.8177 19.8463C38.7403 19.7719 38.6582 19.6233 38.6456 19.5348C38.6256 19.3947 38.6498 19.3021 38.733 19.2007C38.8568 19.0497 38.8584 19.0431 38.8 18.9203C38.7717 18.8607 38.7343 18.7973 38.7168 18.7795C38.6994 18.7617 38.6497 18.707 38.6065 18.658C38.5633 18.609 38.5014 18.5555 38.469 18.5392C38.4121 18.5104 38.3991 18.501 38.3104 18.424C38.2562 18.3769 38.2673 18.2581 38.3287 18.2276C38.3519 18.2162 38.3884 18.1918 38.41 18.1735C38.4317 18.1552 38.4713 18.1338 38.4981 18.1259C38.5249 18.1181 38.5691 18.0966 38.5963 18.0782C38.6235 18.0598 38.6791 18.0393 38.7197 18.0327C38.7793 18.0229 38.973 17.9442 39.0074 17.9158C39.0118 17.9122 38.9905 17.887 38.9601 17.8598C38.8996 17.8058 38.7769 17.7574 38.7005 17.7574C38.6739 17.7574 38.6182 17.734 38.5768 17.7054C38.468 17.6302 38.4566 17.528 38.5441 17.413C38.5806 17.365 38.5811 17.3592 38.5507 17.3184C38.4277 17.153 38.384 17.0756 38.3727 17.0033C38.3656 16.958 38.346 16.8952 38.3292 16.8638C38.3123 16.8324 38.2904 16.7235 38.2804 16.6218C38.2705 16.52 38.2492 16.4008 38.2331 16.3568C38.1913 16.2429 38.1953 16.1435 38.243 16.1018C38.2647 16.083 38.2823 16.0575 38.2823 16.0453C38.2823 16.033 38.327 15.9952 38.3815 15.9611C38.4817 15.8986 38.4972 15.8613 38.4281 15.8492C38.4073 15.8456 38.3727 15.8276 38.3511 15.8092C38.3295 15.7909 38.2814 15.7661 38.2443 15.7541C38.2072 15.7421 38.1623 15.7197 38.1445 15.7042C38.1267 15.6886 38.0598 15.6668 37.9959 15.6556C37.9319 15.6445 37.8606 15.6235 37.8373 15.6091C37.814 15.5947 37.7291 15.5751 37.6487 15.5655C37.5682 15.5558 37.4856 15.5393 37.4651 15.5288C37.4445 15.5182 37.3747 15.5034 37.3099 15.4959C37.1777 15.4805 37.1429 15.4618 37.1429 15.4062C37.1429 15.3624 37.2524 15.1821 37.2927 15.1595C37.3075 15.1512 37.3197 15.1318 37.3197 15.1163C37.3197 15.1009 37.3324 15.0836 37.348 15.0778C37.3636 15.0721 37.4156 15.0319 37.4635 14.9885C37.599 14.8659 37.7008 14.7872 37.7239 14.7869C37.7355 14.7868 37.7658 14.7654 37.7912 14.7394C37.8166 14.7134 37.8452 14.6921 37.8549 14.6921C37.8645 14.6921 37.9014 14.6708 37.9368 14.6448C37.9722 14.6188 38.0085 14.5975 38.0174 14.5975C38.0264 14.5975 38.0484 14.5847 38.0663 14.569C38.1095 14.5314 38.5568 14.3137 38.5909 14.3137C38.6056 14.3137 38.6224 14.3014 38.6284 14.2865C38.6344 14.2715 38.666 14.2536 38.6987 14.2467C38.7313 14.2398 38.787 14.2158 38.8223 14.1935C38.8576 14.1711 38.9023 14.1439 38.9215 14.133C38.9517 14.1158 38.9407 14.1054 38.8419 14.0573C38.7294 14.0025 38.7218 14.0015 38.4213 14.0022C38.1881 14.0027 38.0884 14.0108 38.0019 14.036C37.9395 14.0542 37.8093 14.0761 37.7125 14.0847C37.6157 14.0933 37.5241 14.1102 37.509 14.1224C37.4938 14.1345 37.4102 14.1565 37.3232 14.1712C37.2362 14.1859 37.1399 14.2105 37.1093 14.2257C37.0787 14.2409 37.0032 14.2624 36.9416 14.2734C36.8799 14.2843 36.8023 14.3069 36.769 14.3234C36.7358 14.34 36.6626 14.3585 36.6065 14.3644C36.5503 14.3704 36.4768 14.3913 36.4431 14.4107C36.3745 14.4504 36.2395 14.4579 36.2043 14.4239C36.1605 14.3817 36.2866 14.2207 36.5444 13.99C36.5664 13.9703 36.5951 13.9542 36.6082 13.9542C36.6213 13.9542 36.6321 13.9458 36.6321 13.9355C36.6321 13.9172 36.6569 13.8996 36.8973 13.7475C36.9621 13.7065 37.0359 13.6558 37.0612 13.6349C37.0865 13.614 37.133 13.5915 37.1644 13.5848C37.1958 13.5782 37.2215 13.5648 37.2215 13.5551C37.2215 13.5389 37.2553 13.5197 37.4686 13.4149C37.5109 13.3941 37.5545 13.367 37.5653 13.3548C37.5761 13.3425 37.6243 13.3226 37.6725 13.3104C37.7464 13.2918 37.7545 13.2854 37.7247 13.2693C37.6806 13.2455 37.5267 13.2663 37.4977 13.2999C37.4859 13.3138 37.442 13.3303 37.4003 13.3367C37.3586 13.3431 37.2393 13.391 37.1353 13.4431C37.0312 13.4953 36.9373 13.5379 36.9266 13.5379C36.9159 13.5379 36.8917 13.551 36.8727 13.5671C36.8249 13.6076 36.6167 13.7572 36.5338 13.8106C36.4676 13.8533 36.4178 13.8942 36.2852 14.0151C36.236 14.06 36.216 14.0677 36.1879 14.0525C36.1158 14.0137 36.1798 13.7565 36.3285 13.487C36.355 13.4391 36.3767 13.388 36.3767 13.3737C36.3767 13.3593 36.3891 13.3429 36.4044 13.3373C36.4196 13.3316 36.4379 13.3048 36.4449 13.2776C36.452 13.2505 36.4771 13.2049 36.5007 13.1765C36.5244 13.148 36.5658 13.0888 36.5928 13.0449C36.6198 13.0011 36.6662 12.9353 36.6959 12.8989C36.7578 12.823 36.7631 12.8 36.7186 12.8C36.7014 12.8 36.6827 12.817 36.6771 12.8378C36.6714 12.8586 36.6568 12.8758 36.6445 12.8759C36.6128 12.8763 36.2752 13.2108 36.2151 13.3014C36.1875 13.343 36.1338 13.4057 36.0958 13.4406C36.0319 13.4993 36.0252 13.5014 36.0079 13.469C35.9976 13.4497 35.9836 13.3803 35.9769 13.3149C35.9663 13.2122 35.9061 13.046 35.8452 12.9513C35.8352 12.9357 35.8089 12.8931 35.7868 12.8567C35.7647 12.8203 35.7201 12.7564 35.6877 12.7148C35.6554 12.6732 35.6139 12.6178 35.5956 12.5918C35.5773 12.5658 35.551 12.5377 35.5372 12.5293C35.5234 12.521 35.4854 12.4571 35.4529 12.3874C35.4204 12.3177 35.3828 12.243 35.3695 12.2214C35.3008 12.1101 35.2651 12.0622 35.2508 12.0621C35.2421 12.0621 35.2023 12.0373 35.1624 12.0072C35.1225 11.977 35.07 11.9466 35.0457 11.9397C35.0214 11.9327 35.0015 11.9194 35.0015 11.9101C35.0015 11.9008 34.9561 11.8802 34.9007 11.8644C34.8453 11.8485 34.7881 11.8261 34.7737 11.8146C34.7593 11.8031 34.6561 11.7829 34.5443 11.7697C34.3129 11.7424 34.1984 11.6875 34.1549 11.5829C34.1304 11.5241 34.1016 11.4847 33.974 11.3358C33.9394 11.2954 33.8958 11.2443 33.8771 11.2222C33.8584 11.2002 33.835 11.1736 33.8251 11.1632C33.7967 11.1331 33.6051 10.9738 33.5084 10.8998C33.4597 10.8626 33.4023 10.8161 33.3807 10.7964C33.359 10.7767 33.3215 10.7548 33.2972 10.7478C33.2729 10.7407 33.253 10.7272 33.253 10.7177C33.253 10.7082 33.2176 10.683 33.1744 10.6618C33.1311 10.6406 33.0958 10.6158 33.0958 10.6067C33.0958 10.5976 33.0715 10.5844 33.0418 10.5772C33.012 10.5701 32.9745 10.5529 32.9583 10.539C32.9246 10.5101 32.7019 10.3969 32.6789 10.3969C32.6704 10.3969 32.6636 10.4097 32.6636 10.4253C32.6636 10.4409 32.6759 10.4537 32.6909 10.4537C32.7641 10.4537 32.7842 11.0154 32.7143 11.1075C32.693 11.1357 32.6798 11.1374 32.6256 11.1192C32.5676 11.0997 32.5412 11.0812 32.4258 10.9787C32.4053 10.9605 32.3802 10.9456 32.37 10.9456C32.3598 10.9456 32.3399 10.9298 32.3258 10.9105C32.3117 10.8912 32.2818 10.8698 32.2594 10.863C32.237 10.8562 32.2013 10.8358 32.1801 10.8177C32.0868 10.738 31.9763 10.6618 31.9541 10.6618C31.9408 10.6618 31.9132 10.6472 31.8927 10.6293C31.8457 10.5884 31.7314 10.5205 31.642 10.4804C31.6042 10.4635 31.5662 10.4378 31.5576 10.4233C31.5489 10.4089 31.5073 10.3917 31.4651 10.3852C31.4229 10.3787 31.3734 10.3574 31.355 10.3379C31.3366 10.3183 31.3088 10.3023 31.2931 10.3023C31.2775 10.3023 31.2236 10.2816 31.1734 10.2563C31.0845 10.2115 30.9072 10.1504 30.7481 10.1096C30.7049 10.0985 30.612 10.0738 30.5418 10.0547C30.2347 9.97103 29.2489 9.97344 29.1361 10.0581C29.1247 10.0667 29.0496 10.0838 28.9691 10.0961C28.8886 10.1085 28.8079 10.1309 28.7898 10.1459C28.7717 10.161 28.7197 10.1813 28.6743 10.1911C28.6289 10.201 28.5509 10.2279 28.501 10.2509C28.4232 10.2868 28.3778 10.2928 28.1843 10.2924C27.9933 10.2919 27.9416 10.2851 27.8503 10.2482C27.5109 10.1109 27.358 10.0055 27.1823 9.78759C27.1357 9.72971 27.1332 9.7143 27.1332 9.47909C27.1332 9.2698 27.1389 9.22325 27.1697 9.17795C27.2165 9.10919 27.245 9.01562 27.2192 9.01562C27.1887 9.01562 27.0645 9.11727 27.0645 9.14226C27.0645 9.1547 27.049 9.17604 27.0301 9.18974C26.9932 9.2164 26.9516 9.27998 26.8873 9.40747C26.8653 9.45125 26.8392 9.49186 26.8295 9.49767C26.7997 9.51536 26.6904 9.44486 26.6554 9.38539C26.6372 9.35462 26.608 9.31364 26.5904 9.29434C26.5727 9.27504 26.5526 9.22484 26.5456 9.18276C26.5386 9.14067 26.5177 9.07948 26.4991 9.04675C26.47 8.9957 26.4646 8.92056 26.4606 8.5176C26.4579 8.25414 26.4474 8.03402 26.4366 8.01618C26.426 7.99869 26.4171 7.99476 26.4167 8.00744Z" fill="#0183FF"/>
</g>
</svg>
